<svg xmlns="http://www.w3.org/2000/svg" width="170" height="170"><g fill="#767fad" fill-opacity=".702"><path d="M39.86 20.625c0 .797.57 1.477 1.363 1.477.797 0 1.363-.567 1.363-1.364.113-2.945-.453-5.89-1.477-8.613-.793.453-1.59 1.023-2.5 1.59 1.024 2.152 1.364 4.531 1.25 6.91zm-7.95-1.36c.797 0 1.477-.68 1.477-1.472 0-.113 0-.227-.114-.34-.68.567-1.363 1.02-2.043 1.586.114 0 .227.113.34.113h.34zM57.008 9.18c.226.113.453.226.797.226.453 0 .906-.226 1.246-.68.457-.68.226-1.585-.453-1.925-.68-.453-1.25-1.246-1.477-2.04-.906.34-1.816.68-2.613 1.02.344 1.36 1.25 2.606 2.5 3.399zm6.02-6.235c-.567.114-1.024.34-1.59.453.566.114 1.25 0 1.59-.453zm-22.032 27.43c.566.34 1.25.453 1.93.453 1.816 0 3.52-1.023 4.543-2.27 1.363-1.699 1.703-3.851 2.156-5.55l1.25-5.895c.113-.793-.34-1.472-1.137-1.699-.793-.113-1.472.34-1.703 1.133L46.79 22.44c-.344 1.473-.684 3.172-1.59 4.305-.683.906-2.047 1.586-2.953 1.02-.684-.34-1.59 0-1.93.68-.343.792 0 1.585.68 1.929zm-27.594 15.41c.227.567.793.91 1.36.91.23 0 .343 0 .57-.113.68-.344 1.137-1.137.793-1.816-1.02-2.493-.793-5.551.57-7.82 1.364-2.38 3.86-3.966 6.586-4.305.227 0 .453 0 .793-.114 1.024-.113 2.16-.226 3.293-.906 1.024-.566 1.703-1.812 1.703-2.95 0-1.019-.34-1.812-1.133-2.378-.683-.453-1.59-.34-2.046.227-.453.68-.34 1.472.23 1.925 0 .114-.113.567-.344.68-.453.34-1.246.34-2.043.457-.226 0-.566 0-.793.113-1.023.114-2.046.453-3.066.907a78.005 78.005 0 00-7.156 9.859c-.34 1.812 0 3.625.683 5.324zM33.84 34.453c.117 0 .344 0 .457-.113l.566-.227c.797-.226 1.137-1.02.91-1.812-.226-.793-1.023-1.133-1.816-.906l-.57.226c-.793.227-1.137 1.02-.907 1.813.114.566.68 1.02 1.36 1.02zM10.676 49.641c-.797-.114-1.477.453-1.59 1.246l-1.137 8.386c-.113.793.453 1.473 1.25 1.586h.227c.683 0 1.363-.566 1.363-1.246l1.137-8.386c0-.68-.457-1.473-1.25-1.586zm20.668 3.738h.34c.796-.227 1.25-1.02 1.023-1.7-.797-2.831-1.137-5.894-.91-8.84 0-.792-.567-1.472-1.363-1.472-.793 0-1.477.567-1.477 1.36a28.237 28.237 0 001.023 9.746c.114.453.68.906 1.364.906zM57.69 33.434c.114 0 .34 0 .454-.114l8.289-3.058c.34-.114.68-.457.793-.797.117-.34.117-.68 0-1.133L67 27.879c-.227-.68-1.133-1.133-1.816-.793-.454.113-.68.453-.793.906l-7.27 2.723c-.68.226-1.137 1.133-.793 1.812.227.567.793.907 1.363.907zm-.457-15.188l6.246 3.742c.227.114.454.227.684.227.453 0 .906-.227 1.246-.68.457-.683.23-1.59-.453-1.93l-6.246-3.738c-.68-.453-1.59-.226-1.93.453-.453.68-.226 1.586.453 1.926zM74.496 2.04c.227.34.684.566 1.137.566.34 0 .566-.113.906-.34L79.152.228c-1.59.113-3.18.226-4.882.453-.114.453 0 .906.226 1.36zm-3.633 8.16c.34.34.68.68 1.02 1.133a10.154 10.154 0 011.707 3.29c.453 1.358.34 2.718-.23 3.398-.227.34-.794.68-1.247.68-.23 0-.57 0-.683-.227a1.44 1.44 0 00-2.043 0 1.436 1.436 0 000 2.039c.68.68 1.59 1.136 2.613 1.136h.34a4.6 4.6 0 003.406-1.93c1.024-1.472 1.25-3.624.567-5.89a12.076 12.076 0 00-2.27-4.308c-.34-.454-.684-.793-1.137-1.247-.566-.68-1.25-1.246-1.59-1.925-.453-.793-.566-1.926 0-2.383.567-.567.567-1.473.114-2.04-.567-.566-1.477-.566-2.043-.113-1.703 1.586-1.477 4.083-.453 5.782.453 1.133 1.246 1.926 1.93 2.605zm0 0"/><path d="M47.469 32.188c-1.137 2.265-1.25 4.87-.453 7.027.906 2.492 3.18 4.305 5.675 4.531h.684c2.496 0 4.996-1.7 5.676-3.965.23-.793-.227-1.586-.906-1.812-.797-.23-1.59.226-1.817.906-.457 1.246-1.933 2.152-3.293 2.04-1.476-.114-2.84-1.247-3.41-2.833-.566-1.477-.453-3.289.344-4.875.68-1.473 1.93-2.832 3.633-3.969.68-.453.793-1.36.34-1.925-.454-.68-1.364-.793-1.93-.34-2.043 1.586-3.633 3.289-4.543 5.215zm-9.766 19.265c-.68.34-.91 1.246-.566 1.926.226.453.793.793 1.246.793.226 0 .457 0 .683-.227 3.067-1.699 5.11-4.984 5.11-8.5 0-1.699-.453-3.058-1.364-4.191-1.136-1.473-3.066-2.04-4.656-1.473-.793.227-1.133 1.02-.906 1.813.227.793 1.02 1.133 1.816.906.454-.113 1.137.113 1.59.566.567.68.68 1.7.68 2.38-.113 2.495-1.477 4.874-3.633 6.007zm-21.465 5.102c.23 0 .57.113.797.113 1.59 0 3.293-.906 4.317-2.383.793-1.246 1.246-2.719 1.359-4.758v-1.699c0-.91 0-1.703.117-2.496a10.523 10.523 0 011.703-4.418c.453-.68.34-1.473-.343-1.926-.68-.453-1.477-.34-1.93.34-1.137 1.7-1.93 3.625-2.156 5.664-.114.906-.114 1.926-.114 2.836v1.586c-.113 1.473-.34 2.606-.91 3.285-.566.793-1.476 1.246-2.27 1.133-.796-.113-1.476.34-1.703 1.133-.113.683.454 1.476 1.133 1.59zM6.7 74.12c2.953 0 5.906-1.586 7.496-4.195.453-.68.227-1.586-.453-1.926-.683-.453-1.59-.227-1.93.453-1.25 1.926-3.863 3.059-6.132 2.719-1.703-.34-3.293-1.473-4.09-3.059-.227 1.246-.453 2.38-.68 3.625 1.133 1.137 2.61 1.817 4.2 2.157.57.113 1.023.226 1.59.226zm16.242-17l-.343.34a1.436 1.436 0 000 2.039c.23.227.683.453 1.023.453.34 0 .68-.113 1.024-.453l.34-.34a1.436 1.436 0 000-2.039 1.44 1.44 0 00-2.044 0zm34.067-32.867v.113c0 .793.683 1.473 1.476 1.473.797 0 1.477-.68 1.477-1.473v-.113c0-.793-.68-1.473-1.477-1.473-.793 0-1.476.68-1.476 1.473zM80.855 9.406h.114c.683 0 1.25-.453 1.476-1.02.227-.679 0-1.359-.566-1.812-.227-.113-.457-.226-.684-.226-.226 0-.566 0-.793.113-.683.226-1.023.906-.91 1.7.113.566.684 1.132 1.363 1.245zm2.043-6.574c.344.68 1.25 1.02 1.934.68.68-.34 1.02-1.133.68-1.926 0-.113.113-.227.226-.34.227-.226.797-.34 1.477-.34 2.156 0 4.203.793 5.68 2.38.226.339.68.452 1.02.452.343 0 .683-.113.91-.34.566-.566.566-1.472.112-2.039-.34-.34-.68-.566-1.023-.906C91.078.113 88.125 0 85.06 0h-2.047c-.453.906-.453 2.04-.114 2.832zm.114 19.723c.23.113.343.113.57.113.566 0 1.137-.34 1.363-.906l4.313-10.77c.344-.68-.113-1.586-.793-1.812-.684-.34-1.59.113-1.817.793l-4.316 10.765c-.34.684 0 1.59.68 1.817zm-10.219 4.87c-.793.227-1.137 1.02-.91 1.813l3.066 9.75c.23.567.797 1.02 1.364 1.02.113 0 .34 0 .457-.113.793-.227 1.132-1.02.906-1.817l-3.067-9.746c-.226-.68-1.02-1.133-1.816-.906zm-14.082 27.54c.227 1.25 1.137 2.383 2.273 2.95.567.226 1.133.452 1.703.452.454 0 .907-.113 1.36-.226.683-.34 1.023-1.133.683-1.813-.34-.68-1.136-1.023-1.816-.68-.227.114-.453 0-.57-.113-.453-.23-.793-.683-.793-1.023-.227-1.02.34-2.153.793-2.946.343-.566.683-1.02 1.136-1.586.454-.566.91-1.246 1.364-1.812 1.93-3.176 2.27-7.367.91-10.77-.344-.68-1.137-1.132-1.82-.793-.68.34-1.133 1.133-.793 1.813 1.023 2.723.793 5.895-.68 8.273-.344.57-.684 1.024-1.137 1.59-.457.567-.91 1.133-1.25 1.813-1.363 1.586-1.703 3.285-1.363 4.87zm-8.973-7.703c-.793-.227-1.472.34-1.703 1.02l-2.043 8.726c-.226.793.34 1.472 1.024 1.699h.34c.68 0 1.25-.453 1.363-1.133l2.043-8.726c.226-.68-.227-1.473-1.024-1.586zm-6.015 18.36L32.82 59.84c-.683-.34-1.59-.113-1.93.566-.343.68-.113 1.586.567 1.926l10.902 5.781c.227.114.453.114.68.114.457 0 1.023-.227 1.25-.793.34-.567.113-1.36-.566-1.813zm0 0"/><path d="M61.098 43.973l.34-.34a1.436 1.436 0 000-2.04 1.44 1.44 0 00-2.043 0l-.344.454a1.436 1.436 0 000 2.039c.23.227.683.34 1.023.34.34 0 .793-.227 1.024-.453zM83.242 32.3c.793 0 1.477-.68 1.477-1.473s-.684-1.476-1.477-1.476h-.23c-.793 0-1.477.683-1.477 1.476 0 .793.684 1.473 1.477 1.473zM98.57 19.152c.227.453.684.68 1.25.68.227 0 .567-.113.793-.227.684-.453.91-1.246.457-1.925L94.484 7.254c-.457-.68-1.25-.906-1.933-.453-.68.453-.906 1.246-.453 1.926zm3.18-9.18c2.727.34 5.227 1.926 6.586 4.31.797 1.245 1.137 2.718 1.023 3.964-.113 1.926-1.476 3.856-3.18 4.762-.683.34-1.023 1.246-.683 1.926.23.453.797.793 1.25.793.23 0 .457 0 .57-.114a8.7 8.7 0 004.77-7.14c.113-1.926-.344-3.852-1.363-5.668-1.817-3.059-5.11-5.325-8.746-5.664-.793-.114-1.473.453-1.59 1.246 0 .793.57 1.472 1.363 1.586zM88.691 21.876c-1.023 2.152-1.023 4.645-.113 6.91.91 2.27 2.84 3.856 4.996 4.195.34 0 .684.114.91.114 2.27 0 4.313-1.36 5.11-3.399.226-.683-.114-1.59-.91-1.816-.68-.227-1.59.113-1.817.906-.34 1.024-1.703 1.59-2.84 1.477-1.246-.227-2.382-1.25-2.949-2.496-.57-1.473-.57-3.172.113-4.532.34-.68 0-1.586-.683-1.925-.567-.457-1.477-.114-1.817.566zM76.54 49.641c-.906-.34-1.816-.567-2.95-.567-1.476.114-2.726 1.133-3.066 2.492-.23.793.34 1.473 1.02 1.7.797.226 1.477-.34 1.703-1.02 0-.113.227-.226.57-.226.454 0 1.133.113 1.817.34 1.816.566 3.633 1.132 5.562 1.132h.114c2.386 0 4.543-.906 5.793-2.605 1.59-2.04 1.476-5.102-.227-6.688a1.44 1.44 0 00-2.043 0 1.429 1.429 0 000 2.04c.68.679.68 2.042 0 2.949-.684.906-2.047 1.472-3.637 1.472-1.476 0-2.953-.453-4.656-1.02zM52.125 65.395c-.68-.34-1.59-.114-1.93.566-.34.68-.113 1.586.567 1.926 1.703.906 3.52 1.472 5.222 1.472.797 0 1.477-.113 2.274-.34 2.84-.792 4.996-3.058 5.449-5.667.113-.793-.34-1.473-1.133-1.586-.797-.114-1.476.34-1.59 1.132-.23 1.59-1.59 2.95-3.41 3.403-1.59.453-3.633.113-5.449-.906zm-28.73 1.699c-.684.566-.684 1.36-.227 2.039 1.59 1.812 3.18 3.742 4.086 5.894.91 2.266.91 4.532-.113 6.121-.907 1.586-2.84 2.493-4.657 2.266-.793-.113-1.476.453-1.59 1.246-.113.793.458 1.473 1.25 1.586h.797c2.61 0 5.11-1.36 6.473-3.625 1.477-2.383 1.59-5.668.227-8.726-1.024-2.61-2.953-4.762-4.543-6.688-.227-.566-1.137-.566-1.703-.113zM2.5 81.828c.566.113 1.133.68 1.133 1.133-.113.793.57 1.473 1.25 1.586h.113c.684 0 1.363-.567 1.363-1.246.227-2.04-1.476-3.63-3.18-4.082-1.019-.34-2.042-.227-3.066-.114 0 .793-.113 1.817-.113 2.836.91-.226 1.703-.34 2.5-.113zm12.832-3.742v-.227c0-.793-.684-1.472-1.477-1.472-.796 0-1.476.68-1.476 1.472v.227c0 .793.68 1.473 1.476 1.473.793 0 1.477-.68 1.477-1.473zM118.105 13.94c1.247.567 2.61.793 4.086.793 2.5 0 4.996-.793 6.926-2.382v-.114c-.906-.566-1.816-1.02-2.722-1.586-2.16 1.246-4.883 1.586-7.27.567-2.496-1.02-4.316-3.399-4.77-6.117-.793-.227-1.703-.567-2.613-.907-.11.227-.226.453-.11.793.227 3.852 2.95 7.364 6.473 8.953zM33.84 69.133c.23-.227.457-.68.457-1.02 0-.34-.113-.793-.457-1.02a1.44 1.44 0 00-2.043 0c-.227.227-.453.68-.453 1.02 0 .34.113.793.453 1.02.226.226.683.453 1.023.453.453 0 .793-.113 1.02-.453zm1.59 4.195c-.793 0-1.36.68-1.36 1.473v.34c0 .793.68 1.359 1.36 1.359h.117c.793 0 1.36-.68 1.36-1.473v-.34c0-.792-.68-1.359-1.477-1.359zm34.41-29.582l-.567.227c-.796.226-1.136 1.02-.91 1.812.227.567.797.91 1.364.91.113 0 .34 0 .453-.117l.57-.226c.793-.227 1.133-1.02.906-1.813-.226-.68-1.02-1.02-1.816-.793zm22.828-2.152c.227 0 .566-.114.793-.227l.566-.34c.684-.453.797-1.359.344-1.925-.457-.68-1.363-.793-1.933-.34l-.567.34c-.68.453-.793 1.359-.34 1.925.227.34.68.567 1.137.567zm0 0"/><path d="M105.953 18.36c-.226-.794-1.023-1.247-1.703-1.02l-.57.113c-.793.227-1.246 1.02-1.02 1.7.227.679.793 1.019 1.363 1.019h.34l.567-.113c.797-.227 1.25-1.02 1.023-1.7zm28.504 4.761h.113c.68 0 1.364-.566 1.364-1.246l.453-4.648c-.91-.68-1.817-1.247-2.727-1.926l-.566 6.234c0 .793.566 1.473 1.363 1.586zm-20.441 6.574c.226 0 .34 0 .566-.113l10.223-4.082c.68-.34 1.132-1.133.793-1.813-.34-.68-1.133-1.132-1.817-.792l-10.219 4.078c-.683.34-1.136 1.132-.796 1.812.226.567.683.91 1.25.91zm-13.059 2.72a66.768 66.768 0 00-3.406 13.257c-.114.793.453 1.476 1.246 1.59h.23c.68 0 1.36-.57 1.36-1.25.57-4.305 1.707-8.614 3.18-12.578.23-.68-.114-1.586-.794-1.813-.68-.34-1.476.113-1.816.793zm-10.902 19.83c-.797-.226-1.477.34-1.703 1.02-.34 1.586.34 3.402 1.703 4.535 1.25 1.02 2.84 1.472 3.86 1.699 1.022.227 1.933.34 2.839.34 1.25 0 2.387-.227 3.406-.68 2.274-1.02 3.863-3.172 4.203-5.555.114-.792-.453-1.472-1.25-1.585-.793-.114-1.476.453-1.59 1.246-.226 1.472-1.25 2.836-2.613 3.402-1.133.453-2.61.566-4.539.227-1.25-.227-2.047-.567-2.613-1.133-.567-.453-.91-1.25-.797-1.817.344-.793-.113-1.586-.906-1.699zm31.57-7.934c-1.59.68-3.637.227-4.77-1.019-.457-.453-.796-1.133-1.136-1.813-.34-.68-.684-1.359-1.25-2.039-1.25-1.59-3.067-2.609-4.996-2.836-.793-.113-1.477.454-1.59 1.247-.113.796.453 1.476 1.25 1.59 1.25.113 2.383.792 3.18 1.812.34.453.68 1.02 1.023 1.586.453.793.793 1.586 1.473 2.265 1.363 1.59 3.296 2.383 5.34 2.383.906 0 1.93-.226 2.84-.566 1.245-.57 2.156-1.477 2.495-2.496.57-1.473.114-3.172-1.136-3.965-.68-.453-1.586-.227-1.93.453-.453.68-.227 1.586.453 1.926.117 0 .117.34.117.566-.457.34-.797.68-1.363.907zm-1.934-14.39c-1.816 1.36-2.836 3.285-2.836 5.21 0 .794.68 1.36 1.364 1.36.793 0 1.36-.68 1.36-1.472 0-1.02.57-2.04 1.593-2.833 1.133-.792 2.723-1.132 4.086-.906 1.363.227 2.726 1.02 3.52 2.153.456.68 1.363.793 1.933.34.68-.454.793-1.36.34-1.926-1.25-1.813-3.293-2.95-5.453-3.29-1.93-.453-4.2.114-5.907 1.364zm20.668-2.496h.118a1.5 1.5 0 001.472-1.473 1.5 1.5 0 00-1.472-1.473h-.118a1.5 1.5 0 00-1.472 1.473 1.5 1.5 0 001.472 1.473zm-13.172-6.574c.227.117.34.117.57.117.567 0 1.02-.23 1.477-.57.567-.567.793-1.247.567-2.04-.227-.793-1.024-1.132-1.817-.906-.457.113-.683.453-.91.793-.34.113-.68.453-.793.906-.226.68.227 1.473.906 1.7zm-49.85 37.403c-.797-.113-1.477.34-1.703 1.133l-3.406 17.566c-.114.793.34 1.473 1.132 1.7h.23c.68 0 1.247-.454 1.36-1.133l3.406-17.567c.23-.793-.226-1.586-1.02-1.7zm-10.45 11.332c.114-.793-.452-1.473-1.245-1.586-.797-.113-1.477.453-1.594 1.246-.113 1.7-1.02 3.29-2.383 4.422-1.363 1.02-3.18 1.473-4.883 1.246-.797-.113-1.476.34-1.59 1.133-.113.793.34 1.473 1.137 1.586.453.113 1.02.113 1.477.113 2.043 0 3.972-.68 5.562-1.812 1.93-1.473 3.293-3.856 3.52-6.348zM45.2 77.52a10.116 10.116 0 004.77 6.234c.566.34 1.246.68 1.816.906.567.227 1.133.567 1.703.906.68.454 1.477 1.246 1.477 1.926a.982.982 0 01-.453.793c-.117.113-.23.113-.23.113-.794-.226-1.59.114-1.817.907-.227.57.226 1.363.91 1.59.34.113.68.113.906.113.684 0 1.364-.227 1.934-.68 1.02-.68 1.59-1.93 1.59-3.176 0-1.586-1.137-3.172-2.84-4.304-.684-.453-1.363-.68-2.047-1.02a10.358 10.358 0 01-1.586-.793c-1.707-1.023-2.953-2.61-3.41-4.422a7.897 7.897 0 01.683-5.554c.34-.68.114-1.586-.57-1.926-.68-.34-1.59-.113-1.93.566-1.25 2.38-1.59 5.215-.906 7.82zm-6.816 12.695h.57c2.27-.227 4.313-1.93 4.883-4.082.227-.793-.227-1.586-1.023-1.7-.793-.226-1.59.227-1.704 1.02-.34 1.02-1.363 1.926-2.382 2.04-1.137.112-2.274-.567-2.727-1.473-.34-.68-1.25-1.02-1.93-.68-.683.34-1.023 1.246-.683 1.926.797 1.812 2.84 2.949 4.996 2.949zm-27.48-.453c1.476-1.137 3.066-3.29 2.269-5.555-.227-.793-1.02-1.133-1.817-.906-.793.226-1.132 1.02-.906 1.812.227.793-.57 1.813-1.363 2.492-2.5 1.926-6.473 1.926-9.086 0 0 1.133.113 2.27.113 3.403a11.46 11.46 0 004.43.906c2.27 0 4.543-.793 6.36-2.152zm-6.926 15.75c.226 0 .566-.114.793-.227.683-.453.91-1.246.453-1.926L.797 96.22c.34 2.496.793 5.101 1.363 7.48l.68 1.133c.113.453.566.68 1.137.68zm0 0"/><path d="M145.813 33.434c-1.137 3.285-4.204 5.894-7.723 6.46-.793.114-1.363.114-1.59-.113v-.113c.566-.34.797-1.133.453-1.816-.34-.68-1.133-1.02-1.93-.68-.793.34-1.363 1.133-1.476 2.043-.113 1.02.344 2.152 1.023 2.719.68.566 1.59.906 2.727.906.34 0 .793 0 1.246-.113 4.43-.68 8.52-4.079 9.996-8.387.566-1.7.793-3.625.566-5.555-1.816-2.039-3.632-3.965-5.566-5.777.117.226.117.34.344.453 2.27 2.719 3.066 6.687 1.93 9.973zm-14.875 11.671c-.684-.34-1.59-.113-1.934.567-1.246 2.156-1.36 4.988-.34 7.254.34.68.684 1.246 1.024 1.812.453.684.792 1.25 1.023 1.93.453 1.586-.344 3.398-1.82 4.191-.68.34-1.02 1.246-.68 1.926.226.453.793.793 1.25.793.226 0 .453 0 .566-.113 2.727-1.36 4.203-4.645 3.293-7.477-.34-1.023-.793-1.816-1.25-2.61-.34-.452-.566-1.019-.793-1.472-.683-1.472-.566-3.285.227-4.758.34-.796.113-1.59-.566-2.043zm-25.098 4.422c-.227.68.113 1.586.793 1.813 2.047.68 4.09 1.472 5.566 2.832 1.703 1.59 2.496 4.082 2.156 6.348a1.41 1.41 0 001.137 1.585h.227c.68 0 1.25-.453 1.363-1.132.566-3.172-.684-6.575-3.066-8.84-1.93-1.813-4.43-2.719-6.586-3.512-.57-.226-1.364.113-1.59.906zM84.262 69.926c1.363.34 2.726.226 3.976.113.793-.113 1.477-.113 2.157-.113 1.703.113 3.406.906 4.656 2.152 1.136 1.25 1.816 3.063 1.816 4.762 0 .793.57 1.472 1.363 1.472.797 0 1.364-.566 1.364-1.359 0-2.492-.91-4.875-2.614-6.687-1.703-1.813-4.085-2.946-6.472-3.059-.906 0-1.703 0-2.61.113-1.136.114-2.16.114-3.066 0-.797-.226-1.477.227-1.707 1.02-.113.68.344 1.472 1.137 1.586zm20.441-8.16c-.453.34-.68.906-.566 1.472.113.684.68 1.137 1.36 1.137h.116c.68 0 1.364-.453 1.477-1.25.113-.566-.23-1.133-.684-1.473-.453-.226-1.25-.226-1.703.114zm17.715-5.325v.227c0 .793.684 1.473 1.477 1.473.796 0 1.476-.68 1.476-1.473v-.227c0-.793-.68-1.476-1.476-1.476-.793 0-1.477.683-1.477 1.476zm18.398-7.027h.34c.567 0 1.024-.227 1.364-.68.34-.453.453-1.132.113-1.699-.34-.683-1.25-1.023-1.93-.57h-.226c-.797.113-1.25.91-1.137 1.703.34.566.793 1.133 1.476 1.246zM96.641 89.31c3.066-.114 6.132-1.364 8.402-3.516.344-.34.57-.906.453-1.36-.11-.453-.453-.906-1.02-1.019l-1.023-.34c-.793-.226-1.59.227-1.816.906a.968.968 0 000 .793 9.08 9.08 0 01-5.11 1.586c-2.386.114-4.77-.793-6.699-2.265a1.465 1.465 0 00-2.047.226 1.453 1.453 0 00.23 2.04c2.27 1.925 5.223 2.949 8.177 2.949h.453zM81.766 70.266c-1.934.34-3.524 2.039-3.864 4.195-.34 1.812.227 3.625.684 4.984.113.34.227.793.453 1.133.34 1.024.68 1.93.91 2.836.567 2.832-.91 6.008-3.41 7.594-.68.453-.906 1.246-.453 1.926.227.453.684.68 1.25.68.227 0 .453-.114.68-.227 3.52-2.153 5.453-6.461 4.77-10.426-.227-1.133-.68-2.27-1.02-3.29l-.344-1.019c-.34-1.02-.793-2.379-.567-3.511.114-.793.797-1.813 1.59-1.926.797-.113 1.25-.91 1.137-1.703-.227-.793-1.023-1.36-1.816-1.246zM67.23 91.12c-1.25-2.383-1.59-5.101-.91-7.707.227-.793-.226-1.586-1.023-1.7-.793-.226-1.59.227-1.703 1.02-.907 3.286-.453 6.801 1.136 9.746 1.59 2.946 4.317 5.329 7.497 6.461.113 0 .34.114.453.114.566 0 1.136-.34 1.363-.907.227-.796-.113-1.59-.91-1.816-2.496-1.02-4.656-2.832-5.903-5.21zm-48.378 7.594c1.023-.68 2.386-.91 3.976-.567 1.59.34 3.063 1.133 4.54 1.926.683.34 1.589.114 1.933-.566.34-.68.113-1.59-.57-1.93-1.59-.793-3.294-1.7-5.336-2.152-2.387-.453-4.657-.114-6.247 1.133-2.043 1.476-2.84 4.308-1.816 6.46.227.454.793.793 1.25.793.227 0 .453 0 .566-.113.68-.34 1.024-1.246.68-1.926-.34-1.02.113-2.378 1.024-3.058zm19.418-3.29c-.68-.452-1.59-.226-1.93.454-.453.68-.227 1.59.453 1.93 2.387 1.472 5.227 2.265 8.062 2.265 2.5 0 5-.566 7.157-1.699.68-.34.906-1.25.566-1.93-.34-.68-1.246-.906-1.93-.566-3.746 1.93-8.628 1.816-12.378-.453zm-25.325-.792h.57c.794 0 1.477-.68 1.477-1.473s-.683-1.472-1.476-1.472h-.57c-.794 0-1.477.68-1.477 1.472.113.906.683 1.473 1.476 1.473zm14.653 12.808c.226.114.34.114.566.114.566 0 1.023-.34 1.25-.907l.113-.34c.34-.68 0-1.59-.683-1.816-.68-.34-1.59 0-1.817.68l-.226.34c-.227.797.113 1.59.797 1.93zm20.097-19.72l-.566.566a1.434 1.434 0 000 2.043c.226.227.68.453 1.023.453.34 0 .68-.113 1.02-.453l.566-.566c.57-.57.57-1.477 0-2.043a1.44 1.44 0 00-2.043 0zm22.598-3.059l.344.227c.226.113.453.113.68.113.566 0 1.023-.34 1.25-.793.34-.68.113-1.586-.684-1.926l-.34-.113c-.68-.34-1.59-.113-1.93.68-.34.68-.113 1.472.68 1.812zM66.32 62.332c-.68.453-.91 1.246-.453 1.93.227.453.68.68 1.246.68.23 0 .457-.114.684-.227l.906-.567c.684-.457.91-1.25.457-1.93-.457-.679-1.25-.906-1.93-.452zm20.328-2.379c-.57.453-.796 1.246-.457 1.926.23.566.797.906 1.364.906h.457c.68-.226 1.246-.906 1.133-1.586 0-.226-.114-.453-.114-.566a1.564 1.564 0 00-.34-.453c-.68-.68-1.476-.68-2.043-.227zm23.504 15.867v-.34a1.5 1.5 0 00-1.472-1.472c-.797 0-1.477.68-1.477 1.472v.34c0 .793.68 1.473 1.477 1.473a1.5 1.5 0 001.472-1.473zm-5.562-3.625l11.695-1.363c.797-.113 1.363-.793 1.25-1.586-.113-.793-.793-1.36-1.59-1.246l-11.695 1.36c-.797.113-1.363.792-1.25 1.585.113.68.68 1.25 1.363 1.25.114.114.114 0 .227 0zm11.926 2.493c-.684-.454-1.59-.227-1.934.453-.453.68-.227 1.586.453 1.925 1.707 1.02 2.84 2.72 3.297 4.649.34 1.926-.113 3.965-1.363 5.437a5.138 5.138 0 00-.684.793c-.566.567-1.133 1.25-1.59 2.157-.793 1.585-.68 3.738 1.024 4.757.226.114.453.227.797.227h.34c.34-.113.68-.34.906-.68l.457-.793c.34-.68.113-1.586-.57-1.925-.114-.114-.227-.114-.34-.114 0 0 0-.113.113-.113.226-.453.683-1.02 1.137-1.473.226-.34.566-.566.793-.906 1.703-2.156 2.386-5.102 1.93-7.707-.68-2.836-2.384-5.328-4.766-6.688zm16.011-6.348c-1.136 1.472-2.953 2.379-4.77 2.492-1.82.113-3.75-.566-4.995-1.926a1.445 1.445 0 00-2.047 0 1.436 1.436 0 000 2.04c1.703 1.816 4.203 2.835 6.7 2.835h.456c2.61-.113 5.223-1.476 6.813-3.515.453-.567.34-1.473-.227-2.04-.57-.68-1.477-.566-1.93.114zm0 0"/><path d="M142.633 55.078c.797 0 1.59-.113 2.383-.453 2.386-.906 3.863-2.945 5.113-4.531 1.133-1.473 2.383-3.059 3.973-3.742.683-.34 1.023-1.133.796-1.813-.34-.68-1.136-1.02-1.82-.793-2.27 1.02-3.86 2.95-5.11 4.535-1.363 1.7-2.382 3.059-3.972 3.625-1.25.453-2.953.227-3.52-.906-.343-.68-1.136-1.02-1.82-.793-.68.34-1.02 1.133-.793 1.813.793 2.039 2.727 3.058 4.77 3.058zM90.62 95.086c.227 0 .457 0 .57-.113.567-.227 1.02-.793 1.02-1.473s-.34-1.246-.906-1.473c-.457-.226-.91-.226-1.25 0a1.234 1.234 0 00-.91.907c-.227.566 0 1.246.457 1.699.226.34.68.453 1.02.453zm64.39-55.531c-.57.453-.683 1.36-.226 2.039l9.766 12.578a84.796 84.796 0 00-6.133-12.465l-1.363-1.812c-.567-.68-1.477-.793-2.043-.34zm-52.577 64.71h.34c.68 0 1.25-.453 1.363-1.019l3.972-15.527c.227-.793-.226-1.473-1.02-1.7-.796-.226-1.476.227-1.702 1.02l-3.977 15.527c-.226.68.227 1.473 1.024 1.7zm-14.536 6.462c.227 0 .454 0 .68-.114.68-.34.91-1.246.567-1.925l-6.586-12.47c-.34-.679-1.25-.906-1.93-.566-.68.34-.91 1.246-.567 1.926l6.586 12.469c.227.34.793.68 1.25.68zM59.734 96.898c-.683-.453-1.59-.226-1.93.454l-4.886 7.933c-.453.684-.227 1.586.457 1.93.227.113.453.226.793.226.457 0 .91-.226 1.25-.68l4.883-7.933c.34-.68.113-1.59-.567-1.93zm-36.793 18.704c.454 0 .907-.23 1.247-.68.457-.684.23-1.59-.454-1.93-5.109-3.058-11.129-4.418-16.922-4.078-.792 0-1.359.68-1.359 1.473s.68 1.36 1.477 1.36c5.222-.34 10.672.905 15.215 3.624.226.117.57.23.796.23zm30.207-3.063c0-.793-.57-1.473-1.363-1.473-2.726-.113-5.453-.906-7.95-2.152l-.683-.34c-.793-.453-1.703-.906-2.609-1.133-1.59-.453-3.18-.34-4.43.34-1.93 1.133-2.613 3.739-1.59 5.664.227.453.793.793 1.25.793.227 0 .454 0 .68-.11.684-.343.91-1.25.567-1.929-.34-.68-.114-1.586.57-1.926.566-.34 1.25-.34 2.156-.113.684.227 1.363.567 2.16.906l.68.34c2.84 1.36 5.906 2.266 9.086 2.38.793.112 1.476-.454 1.476-1.247zm18.282-2.832c-.793-.113-1.477.453-1.59 1.246-.113.793.453 1.473 1.25 1.586.34 0 .68.113 1.023.113 3.293 0 6.473-1.925 7.836-4.87 1.586-3.177.906-7.368-1.707-9.86a1.434 1.434 0 00-2.043 0 1.436 1.436 0 000 2.039c1.703 1.7 2.156 4.531 1.137 6.687-1.023 1.926-3.633 3.286-5.906 3.059zm-8.516-2.945c.793 0 1.477-.684 1.477-1.477v-1.133c0-.793-.684-1.472-1.477-1.472-.797 0-1.477.68-1.477 1.472v1.133c.114.793.68 1.477 1.477 1.477zm0 0"/><path d="M105.387 109.934c1.472-.567 2.61-1.813 2.722-3.172 0-.793-.566-1.477-1.363-1.477-.793 0-1.476.567-1.476 1.363 0 .223-.34.567-.793.68-.68.227-1.477.113-2.157.113-1.933-.113-3.523-.226-4.882-.91-1.137-.562-2.387-1.699-2.387-2.945 0-.793-.68-1.36-1.477-1.36-.793 0-1.363.68-1.363 1.473.113 2.27 1.703 4.309 4.09 5.328 1.93.907 4.203 1.02 5.902 1.133h1.137c.57.113 1.363 0 2.047-.226zm24.98-27.993c.453.68 1.363.793 1.934.454 1.816-1.133 4.312-1.247 6.129-.114 1.363.793 2.273 2.153 2.613 3.739-.453.113-.797.34-.91.793-.34.68 0 1.585.683 1.812l1.133.453c.23.113.344.113.57.113.227 0 .454-.113.68-.226.34-.227.684-.68.684-1.133.34-3.172-1.363-6.457-4.09-8.16-2.727-1.7-6.473-1.586-9.082.226-.57.454-.797 1.364-.344 2.043zm-4.77-3.289c.798 0 1.477-.68 1.477-1.472 0-.793-.68-1.473-1.476-1.473h-.227c-.793 0-1.476.68-1.476 1.473s.683 1.472 1.476 1.472zm27.938-18.359a8.903 8.903 0 00-5.11-.453c-1.933.566-3.41 1.926-4.09 3.625-.679 1.93-.112 4.195 1.364 5.441a1.46 1.46 0 002.043-.226 1.455 1.455 0 00-.226-2.04c-.567-.453-.793-1.472-.567-2.265.34-.797 1.137-1.59 2.156-1.816 1.024-.227 2.157-.114 3.293.34 1.364.566 2.387 1.59 2.84 2.722.34 1.133 0 2.492-.91 2.945-.68.454-.906 1.246-.453 1.926.227.453.684.68 1.25.68.227 0 .453-.113.68-.227 2.047-1.132 2.953-3.851 2.16-6.23-.684-1.817-2.274-3.516-4.43-4.422zm-5.566 14.734c-.68-.34-1.477-.68-2.156-.906-1.024-.453-1.93-.793-2.727-1.246-1.477-.91-2.383-2.043-2.496-3.176-.113-.793-.797-1.36-1.59-1.246-.797.113-1.363.793-1.25 1.586.34 2.043 1.703 3.856 3.86 5.215 1.023.566 2.046 1.02 3.066 1.473a9.969 9.969 0 011.93.906c3.41 1.699 6.132 4.762 7.382 8.273.227.567.797.906 1.364.906.113 0 .34 0 .453-.113.683-.226 1.136-1.133.797-1.812-1.364-4.305-4.543-7.82-8.633-9.86zm7.156-20.855l.566.566c.227.227.57.34.91.34.34 0 .794-.113 1.02-.453.57-.566.457-1.473-.113-2.04l-.567-.565c-.57-.567-1.476-.454-2.043.113-.34.68-.34 1.586.227 2.039zm8.402 9.066c-.34.68.114 1.59.797 1.817 1.133.453 2.383.68 3.746.793-.226-1.02-.453-1.93-.68-2.836-.683-.114-1.363-.227-1.933-.453-.793-.454-1.59 0-1.93.68zm-6.246 11.563c-.68 2.265.797 4.531 1.364 5.21 2.156 3.063 4.996 5.555 8.289 7.368.226.113.457.113.683.113.453 0 1.02-.226 1.246-.793.344-.68.117-1.586-.566-1.926a21.059 21.059 0 01-7.27-6.46c-.793-1.247-1.132-2.153-.906-2.72.227-.792-.226-1.585-.91-1.812-.906-.113-1.703.227-1.93 1.02zm7.61-.227c-.34.68 0 1.586.793 1.813 1.476.68 2.953 1.246 4.316 2.039l-.34-3.399c-1.023-.453-1.93-.906-2.953-1.359-.68-.113-1.477.227-1.816.906zm-41.903 23.688c.114.68.68 1.246 1.36 1.246h.23c.793-.113 1.36-.793 1.246-1.586-.226-1.363.23-2.723 1.024-3.856 1.363-1.699 3.863-2.492 5.906-1.925 2.043.68 3.746 2.605 3.86 4.87.113.798.683 1.364 1.476 1.364.797-.113 1.363-.793 1.363-1.477-.226-3.398-2.726-6.343-5.906-7.363-3.18-.91-6.926.227-8.969 2.945-1.25 1.473-1.816 3.625-1.59 5.782zm-7.722 2.152c-.684.453-.91 1.246-.457 1.926 2.273 3.629 4.882 6.914 7.836 9.972.226.34.683.454 1.023.454.34 0 .68-.114 1.023-.454a1.436 1.436 0 000-2.039 60.022 60.022 0 01-7.496-9.52c-.453-.566-1.25-.792-1.93-.339zm35.543-.906c.453 0 .796-.227 1.136-.567l6.36-7.933c.453-.567.34-1.473-.227-2.043-.57-.453-1.476-.34-2.047.23l-6.36 7.93c-.452.57-.339 1.477.231 2.043.34.227.68.34.907.34zm-119.692 22.55s.113 0 0 0c.793 0 1.477-.68 1.363-1.472l-.343-8.5c0-.793-.68-1.36-1.477-1.36-.793 0-1.36.68-1.36 1.473l.34 8.5c.114.793.794 1.36 1.477 1.36zm-19.078-7.367a1.452 1.452 0 00-2.047 0l-3.406 3.403c.344.906.797 1.812 1.25 2.719l4.203-4.192c.566-.453.566-1.36 0-1.93zm130.594-16.886c-.793 0-1.477.57-1.477 1.363 0 1.246-1.023 2.492-1.816 3.285-.453.453-1.024.906-1.703 1.473-.684.566-1.364 1.133-2.043 1.812-1.137 1.133-2.5 3.063-2.5 5.328 0 1.246.68 2.606 1.59 3.403.793.68 1.703 1.133 2.726 1.133h.227c.793 0 1.363-.68 1.363-1.473 0-.797-.684-1.363-1.477-1.363-.34 0-.683-.227-.796-.34-.34-.34-.68-.906-.68-1.473 0-1.36 1.02-2.605 1.59-3.285.566-.566 1.136-1.02 1.816-1.59.567-.45 1.25-1.02 1.817-1.586 1.703-1.586 2.613-3.398 2.613-5.21.226-.794-.453-1.477-1.25-1.477zm.797 12.468c-.797 0-1.48.567-1.48 1.36 0 .793.57 1.472 1.363 1.472h.91c.793 0 1.363-.566 1.363-1.359s-.57-1.473-1.363-1.473zm21.8-14.168c-.68-.34-1.59 0-1.816.793l-.34.68c-.34.684 0 1.59.793 1.817.23.113.344.113.57.113.567 0 1.133-.34 1.364-.906l.34-.68c.113-.684-.227-1.477-.91-1.817zm-14.421-8.16c.226-.793 0-1.586-.793-1.925-.684-.454-1.59-.227-2.047.34-.114.113-.227.34-.34.566-.113.226-.113.453-.113.68 0 .792.68 1.359 1.476 1.472h.227c.797-.113 1.363-.453 1.59-1.133zm8.062 18.246c-.566-.453-1.137-.906-1.59-1.472-.566-.567-1.363-1.586-1.25-2.719.114-.793-.453-1.473-1.246-1.586-.797-.113-1.476.453-1.59 1.246-.117 1.7.567 3.399 2.043 4.988.567.567 1.25 1.133 1.817 1.7.453.453 1.023.793 1.363 1.246 1.59 1.586 2.61 3.738 2.953 6.008.113.68.68 1.246 1.363 1.246h.114c.793-.114 1.363-.793 1.25-1.586-.344-2.95-1.59-5.668-3.75-7.707-.453-.453-1.024-.907-1.477-1.364zm-85.168 20.63c.227.113.453.113.68.113.566 0 1.023-.34 1.25-.793.34-.68.113-1.586-.684-1.926-4.656-2.27-8.289-6.688-9.652-11.676-.227-.793-1.02-1.246-1.703-1.02-.793.227-1.25 1.02-1.02 1.7 1.59 5.894 5.79 10.883 11.13 13.601zm12.035-7.934c.453.34.797.68 1.137 1.02.34.34.793.792 1.25 1.132a12.932 12.932 0 008.063 2.832c.453 0 1.019 0 1.476-.11.793-.113 1.363-.792 1.246-1.59-.113-.792-.793-1.359-1.59-1.245-2.61.34-5.336-.453-7.265-2.153l-1.024-1.02c-.453-.452-.906-.792-1.363-1.245-1.246-1.02-2.496-1.586-3.746-1.586-1.817-.113-3.406.906-3.973 2.492-.23.68.114 1.586.793 1.813.68.226 1.59-.114 1.817-.793.113-.34.683-.68 1.25-.567.453.113 1.136.453 1.93 1.02zm26.461-5.215c.34.566.68 1.02 1.02 1.59 1.136 2.039 1.816 4.304 1.933 6.57 0 .797.68 1.36 1.364 1.36.793 0 1.359-.68 1.359-1.473a17.322 17.322 0 00-2.27-7.82c-.34-.567-.796-1.133-1.136-1.813-.567-.793-1.133-1.586-1.477-2.492-.68-1.36-.68-2.723-.226-3.625.34-.684.113-1.59-.567-1.93-.683-.34-1.59-.113-1.93.566-.91 1.704-.796 3.97.227 6.122.567 1.132 1.137 2.039 1.703 2.945zm19.192 18.816c1.02.793 2.27 1.133 3.52 1.133.683 0 1.476-.113 2.042-.453.684-.34 1.024-1.137.684-1.93-.34-.68-1.137-1.02-1.934-.68-.793.34-1.812.227-2.723-.453-1.136-.792-1.93-2.152-1.93-3.625 0-1.472.68-2.832 1.817-3.628.68-.454.793-1.36.34-1.926-.453-.68-1.363-.793-1.93-.34-1.816 1.36-2.953 3.742-2.953 6.008-.113 2.379 1.137 4.535 3.067 5.894zm-4.317-18.703c-.226.684.114 1.477.797 1.93.34.226.68.34 1.02.34.343 0 .797-.114 1.136-.34.567-.453.684-1.363.227-2.043-.113-.227-.34-.34-.566-.453-.227-.227-.34-.34-.684-.34-1.02-.227-1.703.226-1.93.906zm0 0"/><path d="M129.8 101.547c.227.113.567.226.794.226.226 0 .457-.113.683-.226.453-.227.793-.68.907-1.246 0-.567-.34-1.133-.793-1.36-.453-.34-1.137-.453-1.59-.113-.453.34-.797.793-.797 1.36 0 .566.344 1.132.797 1.359zm-74.609 16.887l-.113.793c-.113.793.567 1.472 1.25 1.585h.113c.68 0 1.364-.566 1.364-1.246l.113-.793c.113-.793-.57-1.472-1.25-1.472-.684-.227-1.363.34-1.477 1.133zM40.43 131.238c.34-.566.34-1.246-.114-1.812l-.57-.68c-.566-.566-1.363-.68-2.043-.113-.453.453-.566 1.133-.34 1.586-1.023.68-2.386.91-3.523.68-1.93-.227-3.633-1.36-5.11-2.38-1.25-.906-2.722-2.039-3.52-3.511-.679-1.36-.679-2.836 0-3.856.454-.68.34-1.472-.226-2.039-.683-.453-1.476-.34-2.043.227-1.363 1.812-1.476 4.531-.23 6.8 1.023 1.926 2.84 3.4 4.316 4.419 1.59 1.132 3.75 2.496 6.246 2.836.454.113.797.113 1.25.113 2.497.34 4.657-.567 5.907-2.27zm-22.942 2.95c1.477-1.7 2.043-4.083 1.477-6.235-.34-1.246-.906-2.152-1.59-3.172-.68-1.133-1.25-2.152-1.25-3.176 0-1.02.797-2.039 1.703-2.265.797-.227 1.25-1.02 1.024-1.7-.227-.792-1.024-1.245-1.704-1.019-2.156.567-3.859 2.719-3.859 4.984 0 1.817.906 3.29 1.703 4.649.567.793 1.02 1.586 1.246 2.492.344 1.246 0 2.606-.793 3.625-.226.23-.453.457-.683.57.57.793 1.136 1.586 1.707 2.266.34-.227.68-.566 1.02-1.02zm65.64-2.04c1.02-2.609.68-5.78-.796-8.16-.453-.68-1.25-.91-1.93-.457-.683.457-.91 1.25-.453 1.93 1.02 1.7 1.246 3.852.567 5.668-.684 1.812-2.274 3.285-4.09 3.851-.68.227-1.02.793-1.02 1.473.114.68.68 1.246 1.364 1.246h.68c.452 0 .91-.226 1.136-.68 2.043-.792 3.746-2.605 4.543-4.87zm40.88-3.402c-.567-.566-1.363-.68-2.043-.113-1.137 1.02-2.84 1.586-4.43 1.36-1.59-.227-3.066-1.02-3.972-2.38-.227-.34-.458-.793-.684-1.133-.453-.793-.906-1.585-1.59-2.378a4.728 4.728 0 00-3.293-1.364c-.906 0-1.703.453-2.383 1.133-.57.57-.457 1.477.114 2.043.566.566 1.476.453 2.043-.113 0 0 .113-.114.34-.114.34 0 .91.227 1.136.454.453.453.793 1.02 1.137 1.699.226.453.566.906.906 1.472 1.363 1.926 3.637 3.29 6.02 3.516h.91c2.043 0 4.199-.797 5.676-2.156.57-.453.57-1.36.113-1.926zm27.824-4.191c2.156-1.024 3.746-2.95 4.54-5.102.683-2.266.57-4.762-.567-6.8-.34-.68-1.25-.907-1.93-.567-.68.34-.906 1.246-.566 1.926.68 1.36.906 3.062.34 4.535-.454 1.473-1.59 2.832-3.067 3.512-1.363.68-3.293.68-4.203-.454-.453-.566-1.363-.68-2.043-.226-.566.453-.68 1.36-.227 2.043 1.137 1.36 2.727 1.926 4.43 1.926 1.133-.114 2.27-.34 3.293-.793zm-86.535 1.699c-.793.113-1.25.906-1.133 1.586l2.383 13.601c.113.68.68 1.133 1.363 1.133h.227c.797-.113 1.25-.906 1.136-1.586l-2.386-13.601c-.114-.793-.793-1.246-1.59-1.133zm28.05 13.937c.114 0 .34.118.454.118.57 0 1.136-.34 1.363-.91l4.09-11.899c.226-.793-.113-1.586-.91-1.813-.793-.226-1.59.114-1.817.907l-4.09 11.898c-.226.68.227 1.477.91 1.7zm64.387-16.66l-9.195 7.367c-.57.454-.684 1.364-.226 2.043.226.34.68.567 1.132.567.34 0 .684-.113.91-.34l9.2-7.367c.566-.453.68-1.36.226-2.04-.566-.57-1.476-.683-2.047-.23zm-42.355 17.117c-.684-2.496-2.5-4.421-4.09-5.894l-4.883-4.649a1.44 1.44 0 00-2.043 0 1.44 1.44 0 000 2.043l4.883 4.645c1.59 1.586 2.84 2.836 3.293 4.535.34 1.36 0 2.832-.906 3.852-.684.793-1.48 1.246-2.274 1.132-.68 0-1.363-.566-1.476-1.132-.113-.793-.793-1.36-1.59-1.246-.797.113-1.363.793-1.25 1.586.227 1.925 2.047 3.628 4.09 3.742h.226c1.59 0 3.18-.793 4.43-2.157 1.477-1.812 2.043-4.304 1.59-6.457zM144.223 136c-.684-.453-1.59-.227-1.93.453-1.703 2.492-4.656 4.195-7.723 4.195-3.066 0-6.132-1.59-7.722-4.195-.453-.68-1.364-.793-1.93-.453-.684.453-.797 1.36-.453 1.926 2.156 3.402 6.129 5.441 10.105 5.441 4.086 0 7.95-2.152 10.106-5.441.457-.567.226-1.473-.453-1.926zm-96.868-6.121v.34c0 .793.68 1.472 1.477 1.472.793 0 1.477-.68 1.477-1.472v-.34c0-.793-.684-1.473-1.477-1.473-.797 0-1.477.68-1.477 1.473zm72.793 13.148c-.796 0-1.476.68-1.476 1.473s.68 1.473 1.476 1.473h.34c.793 0 1.477-.68 1.477-1.473s-.684-1.473-1.477-1.473zm-90.507.907a5.229 5.229 0 00-1.703-2.946c-2.047-1.93-5.34-2.27-7.836-1.02.68.794 1.25 1.473 1.93 2.266 1.363-.34 2.84-.113 3.859.793.457.453.797.907.797 1.36.113.453 0 .793-.34 1.02-.227.226-.34.452-.457.792.57.567 1.136 1.133 1.707 1.586a.623.623 0 00.566-.34c1.25-.793 1.703-2.152 1.477-3.511zm16.125 1.925c.91-.906 1.59-1.699 2.5-1.812 1.02-.113 2.27.906 3.293 1.812.566.567 1.476.453 2.043-.113.566-.566.453-1.473-.114-2.039-1.023-1.02-3.066-2.836-5.453-2.605-1.93.226-3.066 1.472-4.2 2.605-.683.68-1.25 1.36-1.929 1.7-.91.452-2.047.34-2.84-.114-.796-.566-1.25-1.586-1.25-2.492.114-.793-.453-1.473-1.25-1.586-.793-.113-1.476.453-1.59 1.246-.226 2.039.797 3.965 2.5 5.098.907.68 2.044.91 3.18.91.907 0 1.817-.23 2.61-.57.91-.34 1.82-1.247 2.5-2.04zm16.011-.34c.684 0 1.25-.453 1.364-1.132.113-.793-.34-1.473-1.137-1.7-1.816-.34-3.293-2.156-3.293-3.968 0-.793.227-1.7.453-2.606l.117-.34c.34-1.132.68-2.492.34-3.964-.34-1.817-1.476-3.176-3.066-3.63a3.782 3.782 0 00-3.067.68c-.797.567-1.25 1.473-1.136 2.38 0 .792.683 1.363 1.476 1.363.797 0 1.363-.68 1.363-1.473 0 0 0-.117.227-.23.113-.114.34-.114.453-.114.457.113.91.684 1.024 1.363.113.907-.114 1.926-.34 2.72l-.114.339c-.343 1.02-.57 2.152-.57 3.285 0 3.176 2.5 6.121 5.566 6.801.227.227.227.227.34.227zm1.364 4.31c1.703 2.491 4.656 3.964 7.609 3.964.34 0 .68 0 1.133-.113 3.293-.453 6.36-2.832 7.383-6.008.683-2.04.34-4.645-1.704-5.664-.68-.34-1.59-.113-1.93.68-.339.68-.112 1.585.68 1.925.57.227.57 1.36.227 2.266-.793 2.152-2.836 3.855-5.11 4.082-2.269.34-4.656-.793-6.019-2.723-.453-.68-1.363-.793-1.93-.34-.566.34-.792 1.25-.34 1.93zm0 0"/><path d="M97.55 146.992c-1.023-.453-2.16-.793-3.179-1.133-1.363-.453-2.613-.906-3.75-1.472-1.476-.793-2.84-2.153-3.18-3.739.227.34.57.454 1.024.567.906.113 1.703-.453 2.27-1.246.57-.91.57-1.93 0-2.836-.794-1.36-2.723-1.7-4.2-.793-1.023.68-1.703 1.812-1.933 3.172-.34 3.402 2.273 6.12 4.656 7.367 1.363.793 2.84 1.25 4.316 1.7 1.024.343 2.043.683 2.953 1.023 2.27 1.02 3.86 2.605 4.086 4.191.117.68-.226 1.473-.68 1.926-.226.226-.566.34-.792.34-.797-.114-1.477.453-1.59 1.25-.114.793.453 1.472 1.246 1.586h.344c1.02 0 1.93-.454 2.722-1.247 1.024-1.136 1.59-2.722 1.364-4.308-.34-2.492-2.383-4.871-5.676-6.348zm34.067-.453c-.113-.793-.906-1.246-1.703-1.133-.797.114-1.25.906-1.137 1.7.227 1.023-.566 2.042-1.363 2.722-2.95 2.492-7.723 2.606-10.672.113a1.465 1.465 0 00-2.047.227 1.453 1.453 0 00.23 2.039c2.044 1.586 4.54 2.492 7.04 2.492 2.613 0 5.222-.906 7.27-2.605 1.93-1.586 2.722-3.625 2.382-5.555zm12.832-.566c1.024-1.02 2.043-2.04 2.953-3.059-.453.227-.91.453-1.363.793a5.48 5.48 0 00-1.59 2.266zm-4.43 1.02c-.68-.227-1.59.112-1.816.792l-1.93 5.215c1.477-1.133 2.954-2.266 4.317-3.512l.226-.68a1.342 1.342 0 00-.796-1.816zm-84.828 1.359l-9.652 9.07c-.57.566-.57 1.473-.113 2.039.226.34.68.453 1.02.453.343 0 .683-.113 1.023-.34l9.652-9.066c.566-.567.566-1.477.113-2.04-.566-.683-1.476-.683-2.043-.116zm33.5 4.761c-.453-.793-1.136-1.36-1.93-1.472-.796-.114-1.476.34-1.702 1.132-.114.793.34 1.473 1.132 1.7.114 0 .23.34.114.566-.114.453-.68.793-1.36.906-.683.114-1.363.114-2.16.227h-.68c-1.136 0-2.5.113-3.632.906-1.59 1.024-2.614 2.95-2.387 4.762.227 1.926 1.59 3.512 3.406 4.082.113 0 .227.11.453.11.57 0 1.137-.34 1.364-1.02.226-.793-.227-1.586-.907-1.813-.683-.226-1.363-.906-1.476-1.699-.114-.793.34-1.586 1.02-2.04.683-.339 1.476-.452 2.273-.452h.566c.91 0 1.817 0 2.84-.227 1.59-.453 2.84-1.472 3.293-2.722.34-1.02.227-2.04-.227-2.946zm29.528 8.614c-2.16-3.059-6.817-3.965-9.883-1.813-2.383 1.7-3.406 4.758-2.84 7.48l2.727-.68c-.34-1.585.343-3.515 1.703-4.421 1.816-1.246 4.656-.68 5.906 1.02.227.34.453.453.797.566.566-.227 1.02-.34 1.59-.566.34-.454.34-1.02 0-1.586zm-28.164-4.305a1.584 1.584 0 00-1.024 0c-.566.226-.906.906-.906 1.473 0 .68.453 1.246 1.133 1.359h.457c.453 0 .906-.227 1.246-.68.344-.566.344-1.246 0-1.703-.227-.11-.566-.34-.906-.45zm-11.813-3.063h.23c.794 0 1.477-.68 1.477-1.472 0-.793-.683-1.473-1.476-1.473h-.23a1.5 1.5 0 00-1.473 1.473c.113.793.68 1.472 1.472 1.472zm-37.812-2.832c-.797 0-1.477.68-1.477 1.473v.227c0 .793.68 1.472 1.477 1.472.793 0 1.476-.68 1.476-1.472V153c-.117-.906-.683-1.473-1.476-1.473zM29.3 136.793c-.796 0-1.476.68-1.476 1.473v.226c0 .793.68 1.477 1.477 1.477.793 0 1.476-.684 1.476-1.477v-.226c-.117-.907-.797-1.473-1.476-1.473zm94.368 22.102l-.797.34c-.68.34-1.02 1.245-.68 1.925 0 .113.114.227.227.34 1.023-.566 2.16-1.02 3.18-1.586 0-.113 0-.226-.114-.34-.34-.793-1.136-1.133-1.816-.68zm-68.023 2.945c-.114-.793-.793-1.36-1.59-1.246-1.477.113-2.84.906-3.86 1.926 1.02.453 1.93.906 2.953 1.246.34-.227.793-.34 1.247-.34.796-.113 1.363-.793 1.25-1.586zm7.949-5.102c-2.043 1.477-2.84 4.535-1.703 6.801.34.68 1.136 1.02 1.93.68.683-.34 1.023-1.133.683-1.926-.57-1.133-.113-2.606.793-3.285.91-.68 2.5-.68 3.406.226.91.793 1.137 2.38.457 3.399-.457.68-.226 1.586.453 1.926.227.113.453.226.793.226.457 0 .91-.226 1.25-.68 1.364-2.152.91-5.21-.906-6.914-2.047-1.699-5.11-1.925-7.156-.453zm26.234 10.543c.34-.113.793 0 1.25 0 .453.114 1.02.114 1.59.114 1.133-.114 2.27-.793 2.723-1.704.453-.68.453-1.586.113-2.265-.34-.68-1.133-1.02-1.93-.68-.68.34-.906 1.02-.793 1.7-.113.113-.344.226-.457.226-.34 0-.68 0-1.133-.113-.683-.114-1.363-.114-2.16 0-2.043.453-3.066 2.156-3.972 3.402l-.684 1.02c-.227.34-.566.68-.906 1.019h1.476c.793 0 1.477 0 2.27-.113.113-.114.226-.227.226-.453.91-.907 1.59-1.926 2.387-2.153zm28.844-51.793l-.227.227a1.429 1.429 0 000 2.039c.227.226.68.453 1.02.453.344 0 .683-.113 1.023-.453l.227-.227a1.436 1.436 0 000-2.039 1.44 1.44 0 00-2.043 0zm-18.059 0a1.436 1.436 0 000 2.04l.23.226c.227.226.68.453 1.02.453.34 0 .684-.113 1.024-.453a1.436 1.436 0 000-2.04l-.227-.226a1.445 1.445 0 00-2.047 0zm-60.98 3.739l-.34.226c-.684.34-1.023 1.246-.684 1.926.23.453.797.793 1.25.793.227 0 .457 0 .684-.113l.34-.227c.68-.34 1.023-1.246.68-1.926-.454-.793-1.247-1.133-1.93-.68zm0 0"/></g></svg>