<?xml version="1.0" encoding="UTF-8"?>
<svg xmlns="http://www.w3.org/2000/svg" xmlns:xlink="http://www.w3.org/1999/xlink" width="170px" height="170px" viewBox="0 0 170 170" version="1.1">
<g id="surface1">
<path style=" stroke:none;fill-rule:nonzero;fill:rgb(46.27451%,49.803922%,67.843137%);fill-opacity:0.701961;" d="M 39.859375 20.625 C 39.859375 21.421875 40.429688 22.101562 41.222656 22.101562 C 42.019531 22.101562 42.585938 21.535156 42.585938 20.738281 C 42.699219 17.792969 42.132812 14.847656 41.109375 12.125 C 40.316406 12.578125 39.519531 13.148438 38.609375 13.714844 C 39.632812 15.867188 39.972656 18.246094 39.859375 20.625 Z M 31.910156 19.265625 C 32.707031 19.265625 33.386719 18.585938 33.386719 17.792969 C 33.386719 17.679688 33.386719 17.566406 33.273438 17.453125 C 32.59375 18.019531 31.910156 18.472656 31.230469 19.039062 C 31.34375 19.039062 31.457031 19.152344 31.570312 19.152344 L 31.910156 19.152344 Z M 57.007812 9.179688 C 57.234375 9.292969 57.460938 9.40625 57.804688 9.40625 C 58.257812 9.40625 58.710938 9.179688 59.050781 8.726562 C 59.507812 8.046875 59.277344 7.140625 58.597656 6.800781 C 57.917969 6.347656 57.347656 5.554688 57.121094 4.761719 C 56.214844 5.101562 55.304688 5.441406 54.507812 5.78125 C 54.851562 7.140625 55.757812 8.386719 57.007812 9.179688 Z M 63.027344 2.945312 C 62.460938 3.058594 62.003906 3.285156 61.4375 3.398438 C 62.003906 3.511719 62.6875 3.398438 63.027344 2.945312 Z M 40.996094 30.375 C 41.5625 30.714844 42.246094 30.828125 42.925781 30.828125 C 44.742188 30.828125 46.445312 29.804688 47.46875 28.558594 C 48.832031 26.859375 49.171875 24.707031 49.625 23.007812 L 50.875 17.113281 C 50.988281 16.320312 50.535156 15.640625 49.738281 15.414062 C 48.945312 15.300781 48.265625 15.753906 48.035156 16.546875 L 46.789062 22.441406 C 46.445312 23.914062 46.105469 25.613281 45.199219 26.746094 C 44.515625 27.652344 43.152344 28.332031 42.246094 27.765625 C 41.5625 27.425781 40.65625 27.765625 40.316406 28.445312 C 39.972656 29.238281 40.316406 30.03125 40.996094 30.375 Z M 13.402344 45.785156 C 13.628906 46.351562 14.195312 46.695312 14.761719 46.695312 C 14.992188 46.695312 15.105469 46.695312 15.332031 46.582031 C 16.011719 46.238281 16.46875 45.445312 16.125 44.765625 C 15.105469 42.273438 15.332031 39.214844 16.695312 36.945312 C 18.058594 34.566406 20.554688 32.980469 23.28125 32.640625 C 23.507812 32.640625 23.734375 32.640625 24.074219 32.527344 C 25.097656 32.414062 26.234375 32.300781 27.367188 31.621094 C 28.390625 31.054688 29.070312 29.808594 29.070312 28.671875 C 29.070312 27.652344 28.730469 26.859375 27.9375 26.292969 C 27.253906 25.839844 26.347656 25.953125 25.890625 26.519531 C 25.4375 27.199219 25.550781 27.992188 26.121094 28.445312 C 26.121094 28.558594 26.007812 29.011719 25.777344 29.125 C 25.324219 29.464844 24.53125 29.464844 23.734375 29.582031 C 23.507812 29.582031 23.167969 29.582031 22.941406 29.695312 C 21.917969 29.808594 20.894531 30.148438 19.875 30.601562 C 17.261719 33.660156 14.878906 36.945312 12.71875 40.460938 C 12.378906 42.273438 12.71875 44.085938 13.402344 45.785156 Z M 33.839844 34.453125 C 33.957031 34.453125 34.183594 34.453125 34.296875 34.339844 L 34.863281 34.113281 C 35.660156 33.886719 36 33.09375 35.773438 32.300781 C 35.546875 31.507812 34.75 31.167969 33.957031 31.394531 L 33.386719 31.621094 C 32.59375 31.847656 32.25 32.640625 32.480469 33.433594 C 32.59375 34 33.160156 34.453125 33.839844 34.453125 Z M 10.675781 49.640625 C 9.878906 49.527344 9.199219 50.09375 9.085938 50.886719 L 7.949219 59.273438 C 7.835938 60.066406 8.402344 60.746094 9.199219 60.859375 C 9.3125 60.859375 9.3125 60.859375 9.425781 60.859375 C 10.109375 60.859375 10.789062 60.292969 10.789062 59.613281 L 11.925781 51.226562 C 11.925781 50.546875 11.46875 49.753906 10.675781 49.640625 Z M 31.34375 53.378906 C 31.457031 53.378906 31.570312 53.378906 31.683594 53.378906 C 32.480469 53.152344 32.933594 52.359375 32.707031 51.679688 C 31.910156 48.847656 31.570312 45.785156 31.796875 42.839844 C 31.796875 42.046875 31.230469 41.367188 30.433594 41.367188 C 29.640625 41.367188 28.957031 41.933594 28.957031 42.726562 C 28.730469 46.011719 29.070312 49.300781 29.980469 52.472656 C 30.09375 52.925781 30.660156 53.378906 31.34375 53.378906 Z M 57.691406 33.433594 C 57.804688 33.433594 58.03125 33.433594 58.144531 33.320312 L 66.433594 30.261719 C 66.773438 30.148438 67.113281 29.804688 67.226562 29.464844 C 67.34375 29.125 67.34375 28.785156 67.226562 28.332031 L 67 27.878906 C 66.773438 27.199219 65.867188 26.746094 65.183594 27.085938 C 64.730469 27.199219 64.503906 27.539062 64.390625 27.992188 L 57.121094 30.714844 C 56.441406 30.941406 55.984375 31.847656 56.328125 32.527344 C 56.554688 33.09375 57.121094 33.433594 57.691406 33.433594 Z M 57.234375 18.246094 L 63.480469 21.988281 C 63.707031 22.101562 63.933594 22.214844 64.164062 22.214844 C 64.617188 22.214844 65.070312 21.988281 65.410156 21.535156 C 65.867188 20.851562 65.640625 19.945312 64.957031 19.605469 L 58.710938 15.867188 C 58.03125 15.414062 57.121094 15.640625 56.78125 16.320312 C 56.328125 17 56.554688 17.90625 57.234375 18.246094 Z M 74.496094 2.039062 C 74.722656 2.378906 75.179688 2.605469 75.632812 2.605469 C 75.972656 2.605469 76.199219 2.492188 76.539062 2.265625 L 79.152344 0.226562 C 77.5625 0.339844 75.972656 0.453125 74.269531 0.679688 C 74.15625 1.132812 74.269531 1.585938 74.496094 2.039062 Z M 70.863281 10.199219 C 71.203125 10.539062 71.542969 10.878906 71.882812 11.332031 C 72.679688 12.351562 73.246094 13.488281 73.589844 14.621094 C 74.042969 15.980469 73.929688 17.339844 73.359375 18.019531 C 73.132812 18.359375 72.566406 18.699219 72.113281 18.699219 C 71.882812 18.699219 71.542969 18.699219 71.429688 18.472656 C 70.863281 17.90625 69.953125 17.90625 69.386719 18.472656 C 68.820312 19.039062 68.820312 19.945312 69.386719 20.511719 C 70.066406 21.191406 70.976562 21.648438 72 21.648438 C 72.113281 21.648438 72.226562 21.648438 72.339844 21.648438 C 73.703125 21.535156 74.949219 20.851562 75.746094 19.71875 C 76.769531 18.246094 76.996094 16.09375 76.3125 13.828125 C 75.859375 12.238281 75.0625 10.765625 74.042969 9.519531 C 73.703125 9.066406 73.359375 8.726562 72.90625 8.273438 C 72.339844 7.59375 71.65625 7.027344 71.316406 6.347656 C 70.863281 5.554688 70.75 4.421875 71.316406 3.964844 C 71.882812 3.398438 71.882812 2.492188 71.429688 1.925781 C 70.863281 1.359375 69.953125 1.359375 69.386719 1.8125 C 67.683594 3.398438 67.910156 5.894531 68.933594 7.59375 C 69.386719 8.726562 70.179688 9.519531 70.863281 10.199219 Z M 70.863281 10.199219 "/>
<path style=" stroke:none;fill-rule:nonzero;fill:rgb(46.27451%,49.803922%,67.843137%);fill-opacity:0.701961;" d="M 47.46875 32.1875 C 46.332031 34.453125 46.21875 37.058594 47.015625 39.214844 C 47.921875 41.707031 50.195312 43.519531 52.691406 43.746094 C 52.917969 43.746094 53.148438 43.746094 53.375 43.746094 C 55.871094 43.746094 58.371094 42.046875 59.050781 39.78125 C 59.28125 38.988281 58.824219 38.195312 58.144531 37.96875 C 57.347656 37.738281 56.554688 38.195312 56.328125 38.875 C 55.871094 40.121094 54.394531 41.027344 53.035156 40.914062 C 51.558594 40.800781 50.195312 39.667969 49.625 38.082031 C 49.058594 36.605469 49.171875 34.792969 49.96875 33.207031 C 50.648438 31.734375 51.898438 30.375 53.601562 29.238281 C 54.28125 28.785156 54.394531 27.878906 53.941406 27.3125 C 53.488281 26.632812 52.578125 26.519531 52.011719 26.972656 C 49.96875 28.558594 48.378906 30.261719 47.46875 32.1875 Z M 37.703125 51.453125 C 37.023438 51.792969 36.792969 52.699219 37.136719 53.378906 C 37.363281 53.832031 37.929688 54.171875 38.382812 54.171875 C 38.609375 54.171875 38.839844 54.171875 39.066406 53.945312 C 42.132812 52.246094 44.175781 48.960938 44.175781 45.445312 C 44.175781 43.746094 43.722656 42.386719 42.8125 41.253906 C 41.675781 39.78125 39.746094 39.214844 38.15625 39.78125 C 37.363281 40.007812 37.023438 40.800781 37.25 41.59375 C 37.476562 42.386719 38.269531 42.726562 39.066406 42.5 C 39.519531 42.386719 40.203125 42.613281 40.65625 43.066406 C 41.222656 43.746094 41.335938 44.765625 41.335938 45.445312 C 41.222656 47.941406 39.859375 50.320312 37.703125 51.453125 Z M 16.238281 56.554688 C 16.46875 56.554688 16.808594 56.667969 17.035156 56.667969 C 18.625 56.667969 20.328125 55.761719 21.351562 54.285156 C 22.144531 53.039062 22.597656 51.566406 22.710938 49.527344 C 22.710938 48.960938 22.710938 48.394531 22.710938 47.828125 C 22.710938 46.917969 22.710938 46.125 22.828125 45.332031 C 23.054688 43.746094 23.621094 42.273438 24.53125 40.914062 C 24.984375 40.234375 24.871094 39.441406 24.1875 38.988281 C 23.507812 38.535156 22.710938 38.648438 22.257812 39.328125 C 21.121094 41.027344 20.328125 42.953125 20.101562 44.992188 C 19.988281 45.898438 19.988281 46.917969 19.988281 47.828125 C 19.988281 48.394531 19.988281 48.847656 19.988281 49.414062 C 19.875 50.886719 19.648438 52.019531 19.078125 52.699219 C 18.511719 53.492188 17.601562 53.945312 16.808594 53.832031 C 16.011719 53.71875 15.332031 54.171875 15.105469 54.964844 C 14.992188 55.648438 15.558594 56.441406 16.238281 56.554688 Z M 6.699219 74.121094 C 9.652344 74.121094 12.605469 72.535156 14.195312 69.925781 C 14.648438 69.246094 14.421875 68.339844 13.742188 68 C 13.058594 67.546875 12.152344 67.773438 11.8125 68.453125 C 10.5625 70.378906 7.949219 71.511719 5.679688 71.171875 C 3.976562 70.832031 2.386719 69.699219 1.589844 68.113281 C 1.363281 69.359375 1.136719 70.492188 0.910156 71.738281 C 2.042969 72.875 3.519531 73.554688 5.109375 73.894531 C 5.679688 74.007812 6.132812 74.121094 6.699219 74.121094 Z M 22.941406 57.121094 L 22.597656 57.460938 C 22.03125 58.027344 22.03125 58.933594 22.597656 59.5 C 22.828125 59.726562 23.28125 59.953125 23.621094 59.953125 C 23.960938 59.953125 24.300781 59.839844 24.644531 59.5 L 24.984375 59.160156 C 25.550781 58.59375 25.550781 57.6875 24.984375 57.121094 C 24.417969 56.554688 23.507812 56.554688 22.941406 57.121094 Z M 57.007812 24.253906 L 57.007812 24.367188 C 57.007812 25.160156 57.691406 25.839844 58.484375 25.839844 C 59.28125 25.839844 59.960938 25.160156 59.960938 24.367188 L 59.960938 24.253906 C 59.960938 23.460938 59.28125 22.78125 58.484375 22.78125 C 57.691406 22.78125 57.007812 23.460938 57.007812 24.253906 Z M 80.855469 9.40625 L 80.96875 9.40625 C 81.652344 9.40625 82.21875 8.953125 82.445312 8.386719 C 82.671875 7.707031 82.445312 7.027344 81.878906 6.574219 C 81.652344 6.460938 81.421875 6.347656 81.195312 6.347656 C 80.96875 6.347656 80.628906 6.347656 80.402344 6.460938 C 79.71875 6.6875 79.378906 7.367188 79.492188 8.160156 C 79.605469 8.726562 80.175781 9.292969 80.855469 9.40625 Z M 82.898438 2.832031 C 83.242188 3.511719 84.148438 3.851562 84.832031 3.511719 C 85.511719 3.171875 85.851562 2.378906 85.511719 1.585938 C 85.511719 1.472656 85.625 1.359375 85.738281 1.246094 C 85.964844 1.019531 86.535156 0.90625 87.214844 0.90625 C 89.371094 0.90625 91.417969 1.699219 92.894531 3.285156 C 93.121094 3.625 93.574219 3.738281 93.914062 3.738281 C 94.257812 3.738281 94.597656 3.625 94.824219 3.398438 C 95.390625 2.832031 95.390625 1.925781 94.9375 1.359375 C 94.597656 1.019531 94.257812 0.792969 93.914062 0.453125 C 91.078125 0.113281 88.125 0 85.058594 0 C 84.375 0 83.695312 0 83.011719 0 C 82.558594 0.90625 82.558594 2.039062 82.898438 2.832031 Z M 83.011719 22.554688 C 83.242188 22.667969 83.355469 22.667969 83.582031 22.667969 C 84.148438 22.667969 84.71875 22.328125 84.945312 21.761719 L 89.257812 10.992188 C 89.601562 10.3125 89.144531 9.40625 88.464844 9.179688 C 87.78125 8.839844 86.875 9.292969 86.648438 9.972656 L 82.332031 20.738281 C 81.992188 21.421875 82.332031 22.328125 83.011719 22.554688 Z M 72.792969 27.425781 C 72 27.652344 71.65625 28.445312 71.882812 29.238281 L 74.949219 38.988281 C 75.179688 39.554688 75.746094 40.007812 76.3125 40.007812 C 76.425781 40.007812 76.652344 40.007812 76.769531 39.894531 C 77.5625 39.667969 77.902344 38.875 77.675781 38.078125 L 74.609375 28.332031 C 74.382812 27.652344 73.589844 27.199219 72.792969 27.425781 Z M 58.710938 54.964844 C 58.9375 56.214844 59.847656 57.347656 60.984375 57.914062 C 61.550781 58.140625 62.117188 58.367188 62.6875 58.367188 C 63.140625 58.367188 63.59375 58.253906 64.046875 58.140625 C 64.730469 57.800781 65.070312 57.007812 64.730469 56.328125 C 64.390625 55.648438 63.59375 55.304688 62.914062 55.648438 C 62.6875 55.761719 62.460938 55.648438 62.34375 55.535156 C 61.890625 55.304688 61.550781 54.851562 61.550781 54.511719 C 61.324219 53.492188 61.890625 52.359375 62.34375 51.566406 C 62.6875 51 63.027344 50.546875 63.480469 49.980469 C 63.933594 49.414062 64.390625 48.734375 64.84375 48.167969 C 66.773438 44.992188 67.113281 40.800781 65.753906 37.398438 C 65.410156 36.71875 64.617188 36.265625 63.933594 36.605469 C 63.253906 36.945312 62.800781 37.738281 63.140625 38.417969 C 64.164062 41.140625 63.933594 44.3125 62.460938 46.691406 C 62.117188 47.261719 61.777344 47.714844 61.324219 48.28125 C 60.867188 48.847656 60.414062 49.414062 60.074219 50.09375 C 58.710938 51.679688 58.371094 53.378906 58.710938 54.964844 Z M 49.738281 47.261719 C 48.945312 47.035156 48.265625 47.601562 48.035156 48.28125 L 45.992188 57.007812 C 45.765625 57.800781 46.332031 58.480469 47.015625 58.707031 C 47.128906 58.707031 47.242188 58.707031 47.355469 58.707031 C 48.035156 58.707031 48.605469 58.253906 48.71875 57.574219 L 50.761719 48.847656 C 50.988281 48.167969 50.535156 47.375 49.738281 47.261719 Z M 43.722656 65.621094 L 32.820312 59.839844 C 32.136719 59.5 31.230469 59.726562 30.890625 60.40625 C 30.546875 61.085938 30.777344 61.992188 31.457031 62.332031 L 42.359375 68.113281 C 42.585938 68.226562 42.8125 68.226562 43.039062 68.226562 C 43.496094 68.226562 44.0625 68 44.289062 67.433594 C 44.628906 66.867188 44.402344 66.074219 43.722656 65.621094 Z M 43.722656 65.621094 "/>
<path style=" stroke:none;fill-rule:nonzero;fill:rgb(46.27451%,49.803922%,67.843137%);fill-opacity:0.701961;" d="M 61.097656 43.972656 L 61.4375 43.632812 C 62.003906 43.066406 62.003906 42.160156 61.4375 41.59375 C 60.867188 41.027344 59.960938 41.027344 59.394531 41.59375 L 59.050781 42.046875 C 58.484375 42.613281 58.484375 43.519531 59.050781 44.085938 C 59.28125 44.3125 59.734375 44.425781 60.074219 44.425781 C 60.414062 44.425781 60.867188 44.199219 61.097656 43.972656 Z M 83.242188 32.300781 C 84.035156 32.300781 84.71875 31.621094 84.71875 30.828125 C 84.71875 30.035156 84.035156 29.351562 83.242188 29.351562 L 83.011719 29.351562 C 82.21875 29.351562 81.535156 30.035156 81.535156 30.828125 C 81.535156 31.621094 82.21875 32.300781 83.011719 32.300781 Z M 98.570312 19.152344 C 98.796875 19.605469 99.253906 19.832031 99.820312 19.832031 C 100.046875 19.832031 100.386719 19.71875 100.613281 19.605469 C 101.296875 19.152344 101.523438 18.359375 101.070312 17.679688 L 94.484375 7.253906 C 94.027344 6.574219 93.234375 6.347656 92.550781 6.800781 C 91.871094 7.253906 91.644531 8.046875 92.097656 8.726562 Z M 101.75 9.972656 C 104.476562 10.3125 106.976562 11.898438 108.335938 14.28125 C 109.132812 15.527344 109.472656 17 109.359375 18.246094 C 109.246094 20.171875 107.882812 22.101562 106.179688 23.007812 C 105.496094 23.347656 105.15625 24.253906 105.496094 24.933594 C 105.726562 25.386719 106.292969 25.726562 106.746094 25.726562 C 106.976562 25.726562 107.203125 25.726562 107.316406 25.613281 C 110.039062 24.253906 111.859375 21.535156 112.085938 18.472656 C 112.199219 16.546875 111.742188 14.621094 110.722656 12.804688 C 108.90625 9.746094 105.613281 7.480469 101.976562 7.140625 C 101.183594 7.027344 100.503906 7.59375 100.386719 8.386719 C 100.386719 9.179688 100.957031 9.859375 101.75 9.972656 Z M 88.691406 21.875 C 87.667969 24.027344 87.667969 26.519531 88.578125 28.785156 C 89.488281 31.054688 91.417969 32.640625 93.574219 32.980469 C 93.914062 32.980469 94.257812 33.09375 94.484375 33.09375 C 96.753906 33.09375 98.796875 31.734375 99.59375 29.695312 C 99.820312 29.011719 99.480469 28.105469 98.683594 27.878906 C 98.003906 27.652344 97.09375 27.992188 96.867188 28.785156 C 96.527344 29.808594 95.164062 30.375 94.027344 30.261719 C 92.78125 30.035156 91.644531 29.011719 91.078125 27.765625 C 90.507812 26.292969 90.507812 24.59375 91.191406 23.234375 C 91.53125 22.554688 91.191406 21.648438 90.507812 21.308594 C 89.941406 20.851562 89.03125 21.195312 88.691406 21.875 Z M 76.539062 49.640625 C 75.632812 49.300781 74.722656 49.074219 73.589844 49.074219 C 72.113281 49.1875 70.863281 50.207031 70.523438 51.566406 C 70.292969 52.359375 70.863281 53.039062 71.542969 53.265625 C 72.339844 53.492188 73.019531 52.925781 73.246094 52.246094 C 73.246094 52.132812 73.472656 52.019531 73.816406 52.019531 C 74.269531 52.019531 74.949219 52.132812 75.632812 52.359375 C 77.449219 52.925781 79.265625 53.492188 81.195312 53.492188 C 81.195312 53.492188 81.195312 53.492188 81.308594 53.492188 C 83.695312 53.492188 85.851562 52.585938 87.101562 50.886719 C 88.691406 48.847656 88.578125 45.785156 86.875 44.199219 C 86.308594 43.632812 85.398438 43.632812 84.832031 44.199219 C 84.261719 44.765625 84.261719 45.671875 84.832031 46.238281 C 85.511719 46.917969 85.511719 48.28125 84.832031 49.1875 C 84.148438 50.09375 82.785156 50.660156 81.195312 50.660156 C 79.71875 50.660156 78.242188 50.207031 76.539062 49.640625 Z M 52.125 65.394531 C 51.445312 65.054688 50.535156 65.28125 50.195312 65.960938 C 49.855469 66.640625 50.082031 67.546875 50.761719 67.886719 C 52.464844 68.792969 54.28125 69.359375 55.984375 69.359375 C 56.78125 69.359375 57.460938 69.246094 58.257812 69.019531 C 61.097656 68.226562 63.253906 65.960938 63.707031 63.351562 C 63.820312 62.558594 63.367188 61.878906 62.574219 61.765625 C 61.777344 61.652344 61.097656 62.105469 60.984375 62.898438 C 60.753906 64.488281 59.394531 65.847656 57.574219 66.300781 C 55.984375 66.753906 53.941406 66.414062 52.125 65.394531 Z M 23.394531 67.09375 C 22.710938 67.660156 22.710938 68.453125 23.167969 69.132812 C 24.757812 70.945312 26.347656 72.875 27.253906 75.027344 C 28.164062 77.292969 28.164062 79.558594 27.140625 81.148438 C 26.234375 82.734375 24.300781 83.640625 22.484375 83.414062 C 21.691406 83.300781 21.007812 83.867188 20.894531 84.660156 C 20.78125 85.453125 21.351562 86.132812 22.144531 86.246094 C 22.371094 86.246094 22.710938 86.246094 22.941406 86.246094 C 25.550781 86.246094 28.050781 84.886719 29.414062 82.621094 C 30.890625 80.238281 31.003906 76.953125 29.640625 73.894531 C 28.617188 71.285156 26.6875 69.132812 25.097656 67.207031 C 24.871094 66.640625 23.960938 66.640625 23.394531 67.09375 Z M 2.5 81.828125 C 3.066406 81.941406 3.632812 82.507812 3.632812 82.960938 C 3.519531 83.753906 4.203125 84.433594 4.882812 84.546875 L 4.996094 84.546875 C 5.679688 84.546875 6.359375 83.980469 6.359375 83.300781 C 6.585938 81.261719 4.882812 79.671875 3.179688 79.21875 C 2.160156 78.878906 1.136719 78.992188 0.113281 79.105469 C 0.113281 79.898438 0 80.921875 0 81.941406 C 0.910156 81.714844 1.703125 81.601562 2.5 81.828125 Z M 15.332031 78.085938 L 15.332031 77.859375 C 15.332031 77.066406 14.648438 76.386719 13.855469 76.386719 C 13.058594 76.386719 12.378906 77.066406 12.378906 77.859375 L 12.378906 78.085938 C 12.378906 78.878906 13.058594 79.558594 13.855469 79.558594 C 14.648438 79.558594 15.332031 78.878906 15.332031 78.085938 Z M 118.105469 13.941406 C 119.351562 14.507812 120.714844 14.734375 122.191406 14.734375 C 124.691406 14.734375 127.1875 13.941406 129.117188 12.351562 C 129.117188 12.351562 129.117188 12.351562 129.117188 12.238281 C 128.210938 11.671875 127.300781 11.21875 126.394531 10.652344 C 124.234375 11.898438 121.511719 12.238281 119.125 11.21875 C 116.628906 10.199219 114.808594 7.820312 114.355469 5.101562 C 113.5625 4.875 112.652344 4.535156 111.742188 4.195312 C 111.632812 4.421875 111.515625 4.648438 111.632812 4.988281 C 111.859375 8.839844 114.582031 12.351562 118.105469 13.941406 Z M 33.839844 69.132812 C 34.070312 68.90625 34.296875 68.453125 34.296875 68.113281 C 34.296875 67.773438 34.183594 67.320312 33.839844 67.09375 C 33.273438 66.527344 32.367188 66.527344 31.796875 67.09375 C 31.570312 67.320312 31.34375 67.773438 31.34375 68.113281 C 31.34375 68.453125 31.457031 68.90625 31.796875 69.132812 C 32.023438 69.359375 32.480469 69.585938 32.820312 69.585938 C 33.273438 69.585938 33.613281 69.472656 33.839844 69.132812 Z M 35.429688 73.328125 C 34.636719 73.328125 34.070312 74.007812 34.070312 74.800781 L 34.070312 75.140625 C 34.070312 75.933594 34.75 76.5 35.429688 76.5 C 35.429688 76.5 35.429688 76.5 35.546875 76.5 C 36.339844 76.5 36.90625 75.820312 36.90625 75.027344 L 36.90625 74.6875 C 36.90625 73.894531 36.226562 73.328125 35.429688 73.328125 Z M 69.839844 43.746094 L 69.273438 43.972656 C 68.476562 44.199219 68.136719 44.992188 68.363281 45.785156 C 68.589844 46.351562 69.160156 46.695312 69.726562 46.695312 C 69.839844 46.695312 70.066406 46.695312 70.179688 46.578125 L 70.75 46.351562 C 71.542969 46.125 71.882812 45.332031 71.65625 44.539062 C 71.429688 43.859375 70.636719 43.519531 69.839844 43.746094 Z M 92.667969 41.59375 C 92.894531 41.59375 93.234375 41.480469 93.460938 41.367188 L 94.027344 41.027344 C 94.710938 40.574219 94.824219 39.667969 94.371094 39.101562 C 93.914062 38.421875 93.007812 38.308594 92.4375 38.761719 L 91.871094 39.101562 C 91.191406 39.554688 91.078125 40.460938 91.53125 41.027344 C 91.757812 41.367188 92.210938 41.59375 92.667969 41.59375 Z M 92.667969 41.59375 "/>
<path style=" stroke:none;fill-rule:nonzero;fill:rgb(46.27451%,49.803922%,67.843137%);fill-opacity:0.701961;" d="M 105.953125 18.359375 C 105.726562 17.566406 104.929688 17.113281 104.25 17.339844 L 103.679688 17.453125 C 102.886719 17.679688 102.433594 18.472656 102.660156 19.152344 C 102.886719 19.832031 103.453125 20.171875 104.023438 20.171875 C 104.136719 20.171875 104.25 20.171875 104.363281 20.171875 L 104.929688 20.058594 C 105.726562 19.832031 106.179688 19.039062 105.953125 18.359375 Z M 134.457031 23.121094 L 134.570312 23.121094 C 135.25 23.121094 135.933594 22.554688 135.933594 21.875 L 136.386719 17.226562 C 135.476562 16.546875 134.570312 15.980469 133.660156 15.300781 L 133.09375 21.535156 C 133.09375 22.328125 133.660156 23.007812 134.457031 23.121094 Z M 114.015625 29.695312 C 114.242188 29.695312 114.355469 29.695312 114.582031 29.582031 L 124.804688 25.5 C 125.484375 25.160156 125.9375 24.367188 125.597656 23.6875 C 125.257812 23.007812 124.464844 22.554688 123.78125 22.894531 L 113.5625 26.972656 C 112.878906 27.3125 112.425781 28.105469 112.765625 28.785156 C 112.992188 29.351562 113.449219 29.695312 114.015625 29.695312 Z M 100.957031 32.414062 C 99.367188 36.71875 98.230469 41.140625 97.550781 45.671875 C 97.4375 46.464844 98.003906 47.148438 98.796875 47.261719 C 98.910156 47.261719 98.910156 47.261719 99.027344 47.261719 C 99.707031 47.261719 100.386719 46.691406 100.386719 46.011719 C 100.957031 41.707031 102.09375 37.398438 103.566406 33.433594 C 103.796875 32.753906 103.453125 31.847656 102.773438 31.621094 C 102.09375 31.28125 101.296875 31.734375 100.957031 32.414062 Z M 90.054688 52.246094 C 89.257812 52.019531 88.578125 52.585938 88.351562 53.265625 C 88.011719 54.851562 88.691406 56.667969 90.054688 57.800781 C 91.304688 58.820312 92.894531 59.273438 93.914062 59.5 C 94.9375 59.726562 95.847656 59.839844 96.753906 59.839844 C 98.003906 59.839844 99.140625 59.613281 100.160156 59.160156 C 102.433594 58.140625 104.023438 55.988281 104.363281 53.605469 C 104.476562 52.8125 103.910156 52.132812 103.113281 52.019531 C 102.320312 51.90625 101.636719 52.472656 101.523438 53.265625 C 101.296875 54.738281 100.273438 56.101562 98.910156 56.667969 C 97.777344 57.121094 96.300781 57.234375 94.371094 56.894531 C 93.121094 56.667969 92.324219 56.328125 91.757812 55.761719 C 91.191406 55.308594 90.847656 54.511719 90.960938 53.945312 C 91.304688 53.152344 90.847656 52.359375 90.054688 52.246094 Z M 121.625 44.3125 C 120.035156 44.992188 117.988281 44.539062 116.855469 43.292969 C 116.398438 42.839844 116.058594 42.160156 115.71875 41.480469 C 115.378906 40.800781 115.035156 40.121094 114.46875 39.441406 C 113.21875 37.851562 111.402344 36.832031 109.472656 36.605469 C 108.679688 36.492188 107.996094 37.058594 107.882812 37.851562 C 107.769531 38.648438 108.335938 39.328125 109.132812 39.441406 C 110.382812 39.554688 111.515625 40.234375 112.3125 41.253906 C 112.652344 41.707031 112.992188 42.273438 113.335938 42.839844 C 113.789062 43.632812 114.128906 44.425781 114.808594 45.105469 C 116.171875 46.695312 118.105469 47.488281 120.148438 47.488281 C 121.054688 47.488281 122.078125 47.261719 122.988281 46.921875 C 124.234375 46.351562 125.144531 45.445312 125.484375 44.425781 C 126.054688 42.953125 125.597656 41.253906 124.347656 40.460938 C 123.667969 40.007812 122.761719 40.234375 122.417969 40.914062 C 121.964844 41.59375 122.191406 42.5 122.871094 42.839844 C 122.988281 42.839844 122.988281 43.179688 122.988281 43.40625 C 122.53125 43.746094 122.191406 44.085938 121.625 44.3125 Z M 119.691406 29.921875 C 117.875 31.28125 116.855469 33.207031 116.855469 35.132812 C 116.855469 35.925781 117.535156 36.492188 118.21875 36.492188 C 119.011719 36.492188 119.578125 35.8125 119.578125 35.019531 C 119.578125 34 120.148438 32.980469 121.171875 32.1875 C 122.304688 31.394531 123.894531 31.054688 125.257812 31.28125 C 126.621094 31.507812 127.984375 32.300781 128.777344 33.433594 C 129.234375 34.113281 130.140625 34.226562 130.710938 33.773438 C 131.390625 33.320312 131.503906 32.414062 131.050781 31.847656 C 129.800781 30.035156 127.757812 28.898438 125.597656 28.558594 C 123.667969 28.105469 121.398438 28.671875 119.691406 29.921875 Z M 140.359375 27.425781 L 140.476562 27.425781 C 141.269531 27.425781 141.949219 26.746094 141.949219 25.953125 C 141.949219 25.160156 141.269531 24.480469 140.476562 24.480469 L 140.359375 24.480469 C 139.566406 24.480469 138.886719 25.160156 138.886719 25.953125 C 138.886719 26.746094 139.566406 27.425781 140.359375 27.425781 Z M 127.1875 20.851562 C 127.414062 20.96875 127.527344 20.96875 127.757812 20.96875 C 128.324219 20.96875 128.777344 20.738281 129.234375 20.398438 C 129.800781 19.832031 130.027344 19.152344 129.800781 18.359375 C 129.574219 17.566406 128.777344 17.226562 127.984375 17.453125 C 127.527344 17.566406 127.300781 17.90625 127.074219 18.246094 C 126.734375 18.359375 126.394531 18.699219 126.28125 19.152344 C 126.054688 19.832031 126.507812 20.625 127.1875 20.851562 Z M 77.335938 58.253906 C 76.539062 58.140625 75.859375 58.59375 75.632812 59.386719 L 72.226562 76.953125 C 72.113281 77.746094 72.566406 78.425781 73.359375 78.652344 C 73.472656 78.652344 73.589844 78.652344 73.589844 78.652344 C 74.269531 78.652344 74.835938 78.199219 74.949219 77.519531 L 78.355469 59.953125 C 78.585938 59.160156 78.128906 58.367188 77.335938 58.253906 Z M 66.886719 69.585938 C 67 68.792969 66.433594 68.113281 65.640625 68 C 64.84375 67.886719 64.164062 68.453125 64.046875 69.246094 C 63.933594 70.945312 63.027344 72.535156 61.664062 73.667969 C 60.300781 74.6875 58.484375 75.140625 56.78125 74.914062 C 55.984375 74.800781 55.304688 75.253906 55.191406 76.046875 C 55.078125 76.839844 55.53125 77.519531 56.328125 77.632812 C 56.78125 77.746094 57.347656 77.746094 57.804688 77.746094 C 59.847656 77.746094 61.777344 77.066406 63.367188 75.933594 C 65.296875 74.460938 66.660156 72.078125 66.886719 69.585938 Z M 45.199219 77.519531 C 45.878906 80.125 47.582031 82.394531 49.96875 83.753906 C 50.535156 84.09375 51.214844 84.433594 51.785156 84.660156 C 52.351562 84.886719 52.917969 85.226562 53.488281 85.566406 C 54.167969 86.019531 54.964844 86.8125 54.964844 87.492188 C 54.964844 87.71875 54.851562 88.058594 54.511719 88.285156 C 54.394531 88.398438 54.28125 88.398438 54.28125 88.398438 C 53.488281 88.171875 52.691406 88.511719 52.464844 89.304688 C 52.238281 89.875 52.691406 90.667969 53.375 90.894531 C 53.714844 91.007812 54.054688 91.007812 54.28125 91.007812 C 54.964844 91.007812 55.644531 90.78125 56.214844 90.328125 C 57.234375 89.648438 57.804688 88.398438 57.804688 87.152344 C 57.804688 85.566406 56.667969 83.980469 54.964844 82.847656 C 54.28125 82.394531 53.601562 82.167969 52.917969 81.828125 C 52.351562 81.601562 51.898438 81.375 51.332031 81.035156 C 49.625 80.011719 48.378906 78.425781 47.921875 76.613281 C 47.46875 74.800781 47.695312 72.761719 48.605469 71.058594 C 48.945312 70.378906 48.71875 69.472656 48.035156 69.132812 C 47.355469 68.792969 46.445312 69.019531 46.105469 69.699219 C 44.855469 72.078125 44.515625 74.914062 45.199219 77.519531 Z M 38.382812 90.214844 C 38.609375 90.214844 38.726562 90.214844 38.953125 90.214844 C 41.222656 89.988281 43.265625 88.285156 43.835938 86.132812 C 44.0625 85.339844 43.609375 84.546875 42.8125 84.433594 C 42.019531 84.207031 41.222656 84.660156 41.109375 85.453125 C 40.769531 86.472656 39.746094 87.378906 38.726562 87.492188 C 37.589844 87.605469 36.453125 86.925781 36 86.019531 C 35.660156 85.339844 34.75 85 34.070312 85.339844 C 33.386719 85.679688 33.046875 86.585938 33.386719 87.265625 C 34.183594 89.078125 36.226562 90.214844 38.382812 90.214844 Z M 10.902344 89.761719 C 12.378906 88.625 13.96875 86.472656 13.171875 84.207031 C 12.945312 83.414062 12.152344 83.074219 11.355469 83.300781 C 10.5625 83.527344 10.222656 84.320312 10.449219 85.113281 C 10.675781 85.90625 9.878906 86.925781 9.085938 87.605469 C 6.585938 89.53125 2.613281 89.53125 0 87.605469 C 0 88.738281 0.113281 89.875 0.113281 91.007812 C 1.476562 91.574219 2.953125 91.914062 4.542969 91.914062 C 6.8125 91.914062 9.085938 91.121094 10.902344 89.761719 Z M 3.976562 105.511719 C 4.203125 105.511719 4.542969 105.398438 4.769531 105.285156 C 5.453125 104.832031 5.679688 104.039062 5.222656 103.359375 L 0.796875 96.21875 C 1.136719 98.714844 1.589844 101.320312 2.160156 103.699219 L 2.839844 104.832031 C 2.953125 105.285156 3.40625 105.511719 3.976562 105.511719 Z M 3.976562 105.511719 "/>
<path style=" stroke:none;fill-rule:nonzero;fill:rgb(46.27451%,49.803922%,67.843137%);fill-opacity:0.701961;" d="M 145.8125 33.433594 C 144.675781 36.71875 141.609375 39.328125 138.089844 39.894531 C 137.296875 40.007812 136.726562 40.007812 136.5 39.78125 L 136.5 39.667969 C 137.066406 39.328125 137.296875 38.535156 136.953125 37.851562 C 136.613281 37.171875 135.820312 36.832031 135.023438 37.171875 C 134.230469 37.511719 133.660156 38.304688 133.546875 39.214844 C 133.433594 40.234375 133.890625 41.367188 134.570312 41.933594 C 135.25 42.5 136.160156 42.839844 137.296875 42.839844 C 137.636719 42.839844 138.089844 42.839844 138.542969 42.726562 C 142.972656 42.046875 147.0625 38.648438 148.539062 34.339844 C 149.105469 32.640625 149.332031 30.714844 149.105469 28.785156 C 147.289062 26.746094 145.472656 24.820312 143.539062 23.007812 C 143.65625 23.234375 143.65625 23.347656 143.882812 23.460938 C 146.152344 26.179688 146.949219 30.148438 145.8125 33.433594 Z M 130.9375 45.105469 C 130.253906 44.765625 129.347656 44.992188 129.003906 45.671875 C 127.757812 47.828125 127.644531 50.660156 128.664062 52.925781 C 129.003906 53.605469 129.347656 54.171875 129.6875 54.738281 C 130.140625 55.421875 130.480469 55.988281 130.710938 56.667969 C 131.164062 58.253906 130.367188 60.066406 128.890625 60.859375 C 128.210938 61.199219 127.871094 62.105469 128.210938 62.785156 C 128.4375 63.238281 129.003906 63.578125 129.460938 63.578125 C 129.6875 63.578125 129.914062 63.578125 130.027344 63.464844 C 132.753906 62.105469 134.230469 58.820312 133.320312 55.988281 C 132.980469 54.964844 132.527344 54.171875 132.070312 53.378906 C 131.730469 52.925781 131.503906 52.359375 131.277344 51.90625 C 130.59375 50.433594 130.710938 48.621094 131.503906 47.148438 C 131.84375 46.351562 131.617188 45.558594 130.9375 45.105469 Z M 105.839844 49.527344 C 105.613281 50.207031 105.953125 51.113281 106.632812 51.339844 C 108.679688 52.019531 110.722656 52.8125 112.199219 54.171875 C 113.902344 55.761719 114.695312 58.253906 114.355469 60.519531 C 114.242188 61.3125 114.808594 61.992188 115.492188 62.105469 C 115.605469 62.105469 115.605469 62.105469 115.71875 62.105469 C 116.398438 62.105469 116.96875 61.652344 117.082031 60.972656 C 117.648438 57.800781 116.398438 54.398438 114.015625 52.132812 C 112.085938 50.320312 109.585938 49.414062 107.429688 48.621094 C 106.859375 48.394531 106.066406 48.734375 105.839844 49.527344 Z M 84.261719 69.925781 C 85.625 70.265625 86.988281 70.152344 88.238281 70.039062 C 89.03125 69.925781 89.714844 69.925781 90.394531 69.925781 C 92.097656 70.039062 93.800781 70.832031 95.050781 72.078125 C 96.1875 73.328125 96.867188 75.140625 96.867188 76.839844 C 96.867188 77.632812 97.4375 78.3125 98.230469 78.3125 C 99.027344 78.3125 99.59375 77.746094 99.59375 76.953125 C 99.59375 74.460938 98.683594 72.078125 96.980469 70.265625 C 95.277344 68.453125 92.894531 67.320312 90.507812 67.207031 C 89.601562 67.207031 88.804688 67.207031 87.898438 67.320312 C 86.761719 67.433594 85.738281 67.433594 84.832031 67.320312 C 84.035156 67.09375 83.355469 67.546875 83.125 68.339844 C 83.011719 69.019531 83.46875 69.8125 84.261719 69.925781 Z M 104.703125 61.765625 C 104.25 62.105469 104.023438 62.671875 104.136719 63.238281 C 104.25 63.921875 104.816406 64.375 105.496094 64.375 L 105.613281 64.375 C 106.292969 64.375 106.976562 63.921875 107.089844 63.125 C 107.203125 62.558594 106.859375 61.992188 106.40625 61.652344 C 105.953125 61.425781 105.15625 61.425781 104.703125 61.765625 Z M 122.417969 56.441406 L 122.417969 56.667969 C 122.417969 57.460938 123.101562 58.140625 123.894531 58.140625 C 124.691406 58.140625 125.371094 57.460938 125.371094 56.667969 L 125.371094 56.441406 C 125.371094 55.648438 124.691406 54.964844 123.894531 54.964844 C 123.101562 54.964844 122.417969 55.648438 122.417969 56.441406 Z M 140.816406 49.414062 C 140.929688 49.414062 141.042969 49.414062 141.15625 49.414062 C 141.722656 49.414062 142.179688 49.1875 142.519531 48.734375 C 142.859375 48.28125 142.972656 47.601562 142.632812 47.035156 C 142.292969 46.351562 141.382812 46.011719 140.703125 46.464844 C 140.703125 46.464844 140.703125 46.464844 140.589844 46.464844 C 140.589844 46.464844 140.589844 46.464844 140.476562 46.464844 C 139.679688 46.578125 139.226562 47.375 139.339844 48.167969 C 139.679688 48.734375 140.132812 49.300781 140.816406 49.414062 Z M 96.640625 89.308594 C 99.707031 89.195312 102.773438 87.945312 105.042969 85.792969 C 105.386719 85.453125 105.613281 84.886719 105.496094 84.433594 C 105.386719 83.980469 105.042969 83.527344 104.476562 83.414062 L 103.453125 83.074219 C 102.660156 82.847656 101.863281 83.300781 101.636719 83.980469 C 101.523438 84.207031 101.523438 84.546875 101.636719 84.773438 C 100.160156 85.792969 98.34375 86.359375 96.527344 86.359375 C 94.140625 86.472656 91.757812 85.566406 89.828125 84.09375 C 89.257812 83.640625 88.351562 83.640625 87.78125 84.320312 C 87.328125 84.886719 87.328125 85.792969 88.011719 86.359375 C 90.28125 88.285156 93.234375 89.308594 96.1875 89.308594 C 96.414062 89.308594 96.527344 89.308594 96.640625 89.308594 Z M 81.765625 70.265625 C 79.832031 70.605469 78.242188 72.304688 77.902344 74.460938 C 77.5625 76.273438 78.128906 78.085938 78.585938 79.445312 C 78.699219 79.785156 78.8125 80.238281 79.039062 80.578125 C 79.378906 81.601562 79.71875 82.507812 79.949219 83.414062 C 80.515625 86.246094 79.039062 89.421875 76.539062 91.007812 C 75.859375 91.460938 75.632812 92.253906 76.085938 92.933594 C 76.3125 93.386719 76.769531 93.613281 77.335938 93.613281 C 77.5625 93.613281 77.789062 93.5 78.015625 93.386719 C 81.535156 91.234375 83.46875 86.925781 82.785156 82.960938 C 82.558594 81.828125 82.105469 80.691406 81.765625 79.671875 C 81.652344 79.332031 81.535156 78.992188 81.421875 78.652344 C 81.082031 77.632812 80.628906 76.273438 80.855469 75.140625 C 80.96875 74.347656 81.652344 73.328125 82.445312 73.214844 C 83.242188 73.101562 83.695312 72.304688 83.582031 71.511719 C 83.355469 70.71875 82.558594 70.152344 81.765625 70.265625 Z M 67.230469 91.121094 C 65.980469 88.738281 65.640625 86.019531 66.320312 83.414062 C 66.546875 82.621094 66.09375 81.828125 65.296875 81.714844 C 64.503906 81.488281 63.707031 81.941406 63.59375 82.734375 C 62.6875 86.019531 63.140625 89.535156 64.730469 92.480469 C 66.320312 95.425781 69.046875 97.808594 72.226562 98.941406 C 72.339844 98.941406 72.566406 99.054688 72.679688 99.054688 C 73.246094 99.054688 73.816406 98.714844 74.042969 98.148438 C 74.269531 97.351562 73.929688 96.558594 73.132812 96.332031 C 70.636719 95.3125 68.476562 93.5 67.230469 91.121094 Z M 18.851562 98.714844 C 19.875 98.035156 21.238281 97.804688 22.828125 98.148438 C 24.417969 98.488281 25.890625 99.28125 27.367188 100.074219 C 28.050781 100.414062 28.957031 100.1875 29.300781 99.507812 C 29.640625 98.828125 29.414062 97.917969 28.730469 97.578125 C 27.140625 96.785156 25.4375 95.878906 23.394531 95.425781 C 21.007812 94.972656 18.738281 95.3125 17.148438 96.558594 C 15.105469 98.035156 14.308594 100.867188 15.332031 103.019531 C 15.558594 103.472656 16.125 103.8125 16.582031 103.8125 C 16.808594 103.8125 17.035156 103.8125 17.148438 103.699219 C 17.828125 103.359375 18.171875 102.453125 17.828125 101.773438 C 17.488281 100.753906 17.941406 99.394531 18.851562 98.714844 Z M 38.269531 95.425781 C 37.589844 94.972656 36.679688 95.199219 36.339844 95.878906 C 35.886719 96.558594 36.113281 97.46875 36.792969 97.808594 C 39.179688 99.28125 42.019531 100.074219 44.855469 100.074219 C 47.355469 100.074219 49.855469 99.507812 52.011719 98.375 C 52.691406 98.035156 52.917969 97.125 52.578125 96.445312 C 52.238281 95.765625 51.332031 95.539062 50.648438 95.878906 C 46.902344 97.808594 42.019531 97.695312 38.269531 95.425781 Z M 12.945312 94.632812 L 13.515625 94.632812 C 14.308594 94.632812 14.992188 93.953125 14.992188 93.160156 C 14.992188 92.367188 14.308594 91.6875 13.515625 91.6875 L 12.945312 91.6875 C 12.152344 91.6875 11.46875 92.367188 11.46875 93.160156 C 11.582031 94.066406 12.152344 94.632812 12.945312 94.632812 Z M 27.597656 107.441406 C 27.824219 107.554688 27.9375 107.554688 28.164062 107.554688 C 28.730469 107.554688 29.1875 107.214844 29.414062 106.648438 L 29.527344 106.308594 C 29.867188 105.628906 29.527344 104.71875 28.84375 104.492188 C 28.164062 104.152344 27.253906 104.492188 27.027344 105.171875 L 26.800781 105.511719 C 26.574219 106.308594 26.914062 107.101562 27.597656 107.441406 Z M 47.695312 87.71875 L 47.128906 88.285156 C 46.558594 88.851562 46.558594 89.761719 47.128906 90.328125 C 47.355469 90.554688 47.808594 90.78125 48.152344 90.78125 C 48.492188 90.78125 48.832031 90.667969 49.171875 90.328125 L 49.738281 89.761719 C 50.308594 89.191406 50.308594 88.285156 49.738281 87.71875 C 49.171875 87.152344 48.265625 87.152344 47.695312 87.71875 Z M 70.292969 84.660156 L 70.636719 84.886719 C 70.863281 85 71.089844 85 71.316406 85 C 71.882812 85 72.339844 84.660156 72.566406 84.207031 C 72.90625 83.527344 72.679688 82.621094 71.882812 82.28125 L 71.542969 82.167969 C 70.863281 81.828125 69.953125 82.054688 69.613281 82.847656 C 69.273438 83.527344 69.5 84.320312 70.292969 84.660156 Z M 66.320312 62.332031 C 65.640625 62.785156 65.410156 63.578125 65.867188 64.261719 C 66.09375 64.714844 66.546875 64.941406 67.113281 64.941406 C 67.34375 64.941406 67.570312 64.828125 67.796875 64.714844 L 68.703125 64.148438 C 69.386719 63.691406 69.613281 62.898438 69.160156 62.21875 C 68.703125 61.539062 67.910156 61.3125 67.230469 61.765625 Z M 86.648438 59.953125 C 86.078125 60.40625 85.851562 61.199219 86.191406 61.878906 C 86.421875 62.445312 86.988281 62.785156 87.554688 62.785156 C 87.667969 62.785156 87.78125 62.785156 88.011719 62.785156 C 88.691406 62.558594 89.257812 61.878906 89.144531 61.199219 C 89.144531 60.972656 89.03125 60.746094 89.03125 60.632812 C 88.917969 60.40625 88.804688 60.292969 88.691406 60.179688 C 88.011719 59.5 87.214844 59.5 86.648438 59.953125 Z M 110.152344 75.820312 L 110.152344 75.480469 C 110.152344 74.6875 109.472656 74.007812 108.679688 74.007812 C 107.882812 74.007812 107.203125 74.6875 107.203125 75.480469 L 107.203125 75.820312 C 107.203125 76.613281 107.882812 77.292969 108.679688 77.292969 C 109.472656 77.292969 110.152344 76.613281 110.152344 75.820312 Z M 104.589844 72.195312 L 116.285156 70.832031 C 117.082031 70.71875 117.648438 70.039062 117.535156 69.246094 C 117.421875 68.453125 116.742188 67.886719 115.945312 68 L 104.25 69.359375 C 103.453125 69.472656 102.886719 70.152344 103 70.945312 C 103.113281 71.625 103.679688 72.195312 104.363281 72.195312 C 104.476562 72.308594 104.476562 72.195312 104.589844 72.195312 Z M 116.515625 74.6875 C 115.832031 74.234375 114.925781 74.460938 114.582031 75.140625 C 114.128906 75.820312 114.355469 76.726562 115.035156 77.066406 C 116.742188 78.085938 117.875 79.785156 118.332031 81.714844 C 118.671875 83.640625 118.21875 85.679688 116.96875 87.152344 C 116.742188 87.378906 116.515625 87.605469 116.285156 87.945312 C 115.71875 88.511719 115.152344 89.195312 114.695312 90.101562 C 113.902344 91.6875 114.015625 93.839844 115.71875 94.859375 C 115.945312 94.972656 116.171875 95.085938 116.515625 95.085938 C 116.628906 95.085938 116.742188 95.085938 116.855469 95.085938 C 117.195312 94.972656 117.535156 94.746094 117.761719 94.40625 L 118.21875 93.613281 C 118.558594 92.933594 118.332031 92.027344 117.648438 91.6875 C 117.535156 91.574219 117.421875 91.574219 117.308594 91.574219 C 117.308594 91.574219 117.308594 91.460938 117.421875 91.460938 C 117.648438 91.007812 118.105469 90.441406 118.558594 89.988281 C 118.785156 89.648438 119.125 89.421875 119.351562 89.082031 C 121.054688 86.925781 121.738281 83.980469 121.28125 81.375 C 120.601562 78.539062 118.898438 76.046875 116.515625 74.6875 Z M 132.527344 68.339844 C 131.390625 69.8125 129.574219 70.71875 127.757812 70.832031 C 125.9375 70.945312 124.007812 70.265625 122.761719 68.90625 C 122.191406 68.339844 121.28125 68.339844 120.714844 68.90625 C 120.148438 69.472656 120.148438 70.378906 120.714844 70.945312 C 122.417969 72.761719 124.917969 73.78125 127.414062 73.78125 C 127.527344 73.78125 127.757812 73.78125 127.871094 73.78125 C 130.480469 73.667969 133.09375 72.304688 134.683594 70.265625 C 135.136719 69.699219 135.023438 68.792969 134.457031 68.226562 C 133.886719 67.546875 132.980469 67.660156 132.527344 68.339844 Z M 132.527344 68.339844 "/>
<path style=" stroke:none;fill-rule:nonzero;fill:rgb(46.27451%,49.803922%,67.843137%);fill-opacity:0.701961;" d="M 142.632812 55.078125 C 143.429688 55.078125 144.222656 54.964844 145.015625 54.625 C 147.402344 53.71875 148.878906 51.679688 150.128906 50.09375 C 151.261719 48.621094 152.511719 47.035156 154.101562 46.351562 C 154.785156 46.011719 155.125 45.21875 154.898438 44.539062 C 154.558594 43.859375 153.761719 43.519531 153.078125 43.746094 C 150.808594 44.765625 149.21875 46.695312 147.96875 48.28125 C 146.605469 49.980469 145.585938 51.339844 143.996094 51.90625 C 142.746094 52.359375 141.042969 52.132812 140.476562 51 C 140.132812 50.320312 139.339844 49.980469 138.65625 50.207031 C 137.976562 50.546875 137.636719 51.339844 137.863281 52.019531 C 138.65625 54.058594 140.589844 55.078125 142.632812 55.078125 Z M 90.621094 95.085938 C 90.847656 95.085938 91.078125 95.085938 91.191406 94.972656 C 91.757812 94.746094 92.210938 94.179688 92.210938 93.5 C 92.210938 92.820312 91.871094 92.253906 91.304688 92.027344 C 90.847656 91.800781 90.394531 91.800781 90.054688 92.027344 C 89.601562 92.140625 89.257812 92.480469 89.144531 92.933594 C 88.917969 93.5 89.144531 94.179688 89.601562 94.632812 C 89.828125 94.972656 90.28125 95.085938 90.621094 95.085938 Z M 155.011719 39.554688 C 154.441406 40.007812 154.328125 40.914062 154.785156 41.59375 L 164.550781 54.171875 C 162.847656 49.867188 160.800781 45.671875 158.417969 41.707031 L 157.054688 39.894531 C 156.488281 39.214844 155.578125 39.101562 155.011719 39.554688 Z M 102.433594 104.265625 C 102.546875 104.265625 102.660156 104.265625 102.773438 104.265625 C 103.453125 104.265625 104.023438 103.8125 104.136719 103.246094 L 108.109375 87.71875 C 108.335938 86.925781 107.882812 86.246094 107.089844 86.019531 C 106.292969 85.792969 105.613281 86.246094 105.386719 87.039062 L 101.410156 102.566406 C 101.183594 103.246094 101.636719 104.039062 102.433594 104.265625 Z M 87.898438 110.726562 C 88.125 110.726562 88.351562 110.726562 88.578125 110.613281 C 89.257812 110.273438 89.488281 109.367188 89.144531 108.6875 L 82.558594 96.21875 C 82.21875 95.539062 81.308594 95.3125 80.628906 95.652344 C 79.949219 95.992188 79.71875 96.898438 80.0625 97.578125 L 86.648438 110.046875 C 86.875 110.386719 87.441406 110.726562 87.898438 110.726562 Z M 59.734375 96.898438 C 59.050781 96.445312 58.144531 96.671875 57.804688 97.351562 L 52.917969 105.285156 C 52.464844 105.96875 52.691406 106.871094 53.375 107.214844 C 53.601562 107.328125 53.828125 107.441406 54.167969 107.441406 C 54.625 107.441406 55.078125 107.214844 55.417969 106.761719 L 60.300781 98.828125 C 60.640625 98.148438 60.414062 97.238281 59.734375 96.898438 Z M 22.941406 115.601562 C 23.394531 115.601562 23.847656 115.371094 24.1875 114.921875 C 24.644531 114.238281 24.417969 113.332031 23.734375 112.992188 C 18.625 109.933594 12.605469 108.574219 6.8125 108.914062 C 6.019531 108.914062 5.453125 109.59375 5.453125 110.386719 C 5.453125 111.179688 6.132812 111.746094 6.929688 111.746094 C 12.152344 111.40625 17.601562 112.652344 22.144531 115.371094 C 22.371094 115.488281 22.714844 115.601562 22.941406 115.601562 Z M 53.148438 112.539062 C 53.148438 111.746094 52.578125 111.066406 51.785156 111.066406 C 49.058594 110.953125 46.332031 110.160156 43.835938 108.914062 C 43.609375 108.800781 43.378906 108.6875 43.152344 108.574219 C 42.359375 108.121094 41.449219 107.667969 40.542969 107.441406 C 38.953125 106.988281 37.363281 107.101562 36.113281 107.78125 C 34.183594 108.914062 33.5 111.519531 34.523438 113.445312 C 34.75 113.898438 35.316406 114.238281 35.773438 114.238281 C 36 114.238281 36.226562 114.238281 36.453125 114.128906 C 37.136719 113.785156 37.363281 112.878906 37.019531 112.199219 C 36.679688 111.519531 36.90625 110.613281 37.589844 110.273438 C 38.15625 109.933594 38.839844 109.933594 39.746094 110.160156 C 40.429688 110.386719 41.109375 110.726562 41.90625 111.066406 C 42.132812 111.179688 42.359375 111.292969 42.585938 111.40625 C 45.425781 112.765625 48.492188 113.671875 51.671875 113.785156 C 52.464844 113.898438 53.148438 113.332031 53.148438 112.539062 Z M 71.429688 109.707031 C 70.636719 109.59375 69.953125 110.160156 69.839844 110.953125 C 69.726562 111.746094 70.292969 112.425781 71.089844 112.539062 C 71.429688 112.539062 71.769531 112.652344 72.113281 112.652344 C 75.40625 112.652344 78.585938 110.726562 79.949219 107.78125 C 81.535156 104.605469 80.855469 100.414062 78.242188 97.921875 C 77.675781 97.351562 76.769531 97.351562 76.199219 97.921875 C 75.632812 98.488281 75.632812 99.394531 76.199219 99.960938 C 77.902344 101.660156 78.355469 104.492188 77.335938 106.648438 C 76.3125 108.574219 73.703125 109.933594 71.429688 109.707031 Z M 62.914062 106.761719 C 63.707031 106.761719 64.390625 106.078125 64.390625 105.285156 L 64.390625 104.152344 C 64.390625 103.359375 63.707031 102.679688 62.914062 102.679688 C 62.117188 102.679688 61.4375 103.359375 61.4375 104.152344 L 61.4375 105.285156 C 61.550781 106.078125 62.117188 106.761719 62.914062 106.761719 Z M 62.914062 106.761719 "/>
<path style=" stroke:none;fill-rule:nonzero;fill:rgb(46.27451%,49.803922%,67.843137%);fill-opacity:0.701961;" d="M 105.386719 109.933594 C 106.859375 109.367188 107.996094 108.121094 108.109375 106.761719 C 108.109375 105.96875 107.542969 105.285156 106.746094 105.285156 C 105.953125 105.285156 105.269531 105.851562 105.269531 106.648438 C 105.269531 106.871094 104.929688 107.214844 104.476562 107.328125 C 103.796875 107.554688 103 107.441406 102.320312 107.441406 C 100.386719 107.328125 98.796875 107.214844 97.4375 106.53125 C 96.300781 105.96875 95.050781 104.832031 95.050781 103.585938 C 95.050781 102.792969 94.371094 102.226562 93.574219 102.226562 C 92.78125 102.226562 92.210938 102.90625 92.210938 103.699219 C 92.324219 105.96875 93.914062 108.007812 96.300781 109.027344 C 98.230469 109.933594 100.503906 110.046875 102.203125 110.160156 C 102.546875 110.160156 103 110.160156 103.339844 110.160156 C 103.910156 110.273438 104.703125 110.160156 105.386719 109.933594 Z M 130.367188 81.941406 C 130.820312 82.621094 131.730469 82.734375 132.300781 82.394531 C 134.117188 81.261719 136.613281 81.148438 138.429688 82.28125 C 139.792969 83.074219 140.703125 84.433594 141.042969 86.019531 C 140.589844 86.132812 140.246094 86.359375 140.132812 86.8125 C 139.792969 87.492188 140.132812 88.398438 140.816406 88.625 L 141.949219 89.078125 C 142.179688 89.191406 142.292969 89.191406 142.519531 89.191406 C 142.746094 89.191406 142.972656 89.078125 143.199219 88.964844 C 143.539062 88.738281 143.882812 88.285156 143.882812 87.832031 C 144.222656 84.660156 142.519531 81.375 139.792969 79.671875 C 137.066406 77.972656 133.320312 78.085938 130.710938 79.898438 C 130.140625 80.351562 129.914062 81.261719 130.367188 81.941406 Z M 125.597656 78.652344 C 126.394531 78.652344 127.074219 77.972656 127.074219 77.179688 C 127.074219 76.386719 126.394531 75.707031 125.597656 75.707031 L 125.371094 75.707031 C 124.578125 75.707031 123.894531 76.386719 123.894531 77.179688 C 123.894531 77.972656 124.578125 78.652344 125.371094 78.652344 Z M 153.535156 60.292969 C 151.832031 59.613281 150.015625 59.5 148.425781 59.839844 C 146.492188 60.40625 145.015625 61.765625 144.335938 63.464844 C 143.65625 65.394531 144.222656 67.660156 145.699219 68.90625 C 146.265625 69.359375 147.175781 69.359375 147.742188 68.679688 C 148.195312 68.113281 148.195312 67.207031 147.515625 66.640625 C 146.949219 66.1875 146.722656 65.167969 146.949219 64.375 C 147.289062 63.578125 148.085938 62.785156 149.105469 62.558594 C 150.128906 62.332031 151.261719 62.445312 152.398438 62.898438 C 153.761719 63.464844 154.785156 64.488281 155.238281 65.621094 C 155.578125 66.753906 155.238281 68.113281 154.328125 68.566406 C 153.648438 69.019531 153.421875 69.8125 153.875 70.492188 C 154.101562 70.945312 154.558594 71.171875 155.125 71.171875 C 155.351562 71.171875 155.578125 71.058594 155.804688 70.945312 C 157.851562 69.8125 158.757812 67.09375 157.964844 64.714844 C 157.28125 62.898438 155.691406 61.199219 153.535156 60.292969 Z M 147.96875 75.027344 C 147.289062 74.6875 146.492188 74.347656 145.8125 74.121094 C 144.789062 73.667969 143.882812 73.328125 143.085938 72.875 C 141.609375 71.964844 140.703125 70.832031 140.589844 69.699219 C 140.476562 68.90625 139.792969 68.339844 139 68.453125 C 138.203125 68.566406 137.636719 69.246094 137.75 70.039062 C 138.089844 72.082031 139.453125 73.894531 141.609375 75.253906 C 142.632812 75.820312 143.65625 76.273438 144.675781 76.726562 C 145.359375 76.953125 146.039062 77.292969 146.605469 77.632812 C 150.015625 79.332031 152.738281 82.394531 153.988281 85.90625 C 154.214844 86.472656 154.785156 86.8125 155.351562 86.8125 C 155.464844 86.8125 155.691406 86.8125 155.804688 86.699219 C 156.488281 86.472656 156.941406 85.566406 156.601562 84.886719 C 155.238281 80.582031 152.058594 77.066406 147.96875 75.027344 Z M 155.125 54.171875 L 155.691406 54.738281 C 155.917969 54.964844 156.261719 55.078125 156.601562 55.078125 C 156.941406 55.078125 157.394531 54.964844 157.621094 54.625 C 158.191406 54.058594 158.078125 53.152344 157.507812 52.585938 L 156.941406 52.019531 C 156.371094 51.453125 155.464844 51.566406 154.898438 52.132812 C 154.558594 52.8125 154.558594 53.71875 155.125 54.171875 Z M 163.527344 63.238281 C 163.1875 63.917969 163.640625 64.828125 164.324219 65.054688 C 165.457031 65.507812 166.707031 65.734375 168.070312 65.847656 C 167.84375 64.828125 167.617188 63.917969 167.390625 63.011719 C 166.707031 62.898438 166.027344 62.785156 165.457031 62.558594 C 164.664062 62.105469 163.867188 62.558594 163.527344 63.238281 Z M 157.28125 74.800781 C 156.601562 77.066406 158.078125 79.332031 158.644531 80.011719 C 160.800781 83.074219 163.640625 85.566406 166.933594 87.378906 C 167.160156 87.492188 167.390625 87.492188 167.617188 87.492188 C 168.070312 87.492188 168.636719 87.265625 168.863281 86.699219 C 169.207031 86.019531 168.980469 85.113281 168.296875 84.773438 C 165.34375 83.1875 162.847656 80.921875 161.027344 78.3125 C 160.234375 77.066406 159.894531 76.160156 160.121094 75.59375 C 160.347656 74.800781 159.894531 74.007812 159.210938 73.78125 C 158.304688 73.667969 157.507812 74.007812 157.28125 74.800781 Z M 164.890625 74.574219 C 164.550781 75.253906 164.890625 76.160156 165.683594 76.386719 C 167.160156 77.066406 168.636719 77.632812 170 78.425781 C 169.886719 77.292969 169.773438 76.160156 169.660156 75.027344 C 168.636719 74.574219 167.730469 74.121094 166.707031 73.667969 C 166.027344 73.554688 165.230469 73.894531 164.890625 74.574219 Z M 122.988281 98.261719 C 123.101562 98.941406 123.667969 99.507812 124.347656 99.507812 C 124.464844 99.507812 124.464844 99.507812 124.578125 99.507812 C 125.371094 99.394531 125.9375 98.714844 125.824219 97.921875 C 125.597656 96.558594 126.054688 95.199219 126.847656 94.066406 C 128.210938 92.367188 130.710938 91.574219 132.753906 92.140625 C 134.796875 92.820312 136.5 94.746094 136.613281 97.011719 C 136.726562 97.808594 137.296875 98.375 138.089844 98.375 C 138.886719 98.261719 139.453125 97.582031 139.453125 96.898438 C 139.226562 93.5 136.726562 90.554688 133.546875 89.535156 C 130.367188 88.625 126.621094 89.761719 124.578125 92.480469 C 123.328125 93.953125 122.761719 96.105469 122.988281 98.261719 Z M 115.265625 100.414062 C 114.582031 100.867188 114.355469 101.660156 114.808594 102.339844 C 117.082031 105.96875 119.691406 109.253906 122.644531 112.3125 C 122.871094 112.652344 123.328125 112.765625 123.667969 112.765625 C 124.007812 112.765625 124.347656 112.652344 124.691406 112.3125 C 125.257812 111.746094 125.257812 110.839844 124.691406 110.273438 C 121.851562 107.328125 119.351562 104.152344 117.195312 100.753906 C 116.742188 100.1875 115.945312 99.960938 115.265625 100.414062 Z M 150.808594 99.507812 C 151.261719 99.507812 151.605469 99.28125 151.945312 98.941406 L 158.304688 91.007812 C 158.757812 90.441406 158.644531 89.535156 158.078125 88.964844 C 157.507812 88.511719 156.601562 88.625 156.03125 89.195312 L 149.671875 97.125 C 149.21875 97.695312 149.332031 98.601562 149.902344 99.167969 C 150.242188 99.394531 150.582031 99.507812 150.808594 99.507812 Z M 31.117188 122.058594 C 31.117188 122.058594 31.230469 122.058594 31.117188 122.058594 C 31.910156 122.058594 32.59375 121.378906 32.480469 120.585938 L 32.136719 112.085938 C 32.136719 111.292969 31.457031 110.726562 30.660156 110.726562 C 29.867188 110.726562 29.300781 111.40625 29.300781 112.199219 L 29.640625 120.699219 C 29.753906 121.492188 30.433594 122.058594 31.117188 122.058594 Z M 12.039062 114.691406 C 11.46875 114.128906 10.5625 114.128906 9.992188 114.691406 L 6.585938 118.09375 C 6.929688 119 7.382812 119.90625 7.835938 120.8125 L 12.039062 116.621094 C 12.605469 116.167969 12.605469 115.261719 12.039062 114.691406 Z M 142.632812 97.804688 C 141.839844 97.804688 141.15625 98.375 141.15625 99.167969 C 141.15625 100.414062 140.132812 101.660156 139.339844 102.453125 C 138.886719 102.90625 138.316406 103.359375 137.636719 103.925781 C 136.953125 104.492188 136.273438 105.058594 135.59375 105.738281 C 134.457031 106.871094 133.09375 108.800781 133.09375 111.066406 C 133.09375 112.3125 133.773438 113.671875 134.683594 114.46875 C 135.476562 115.148438 136.386719 115.601562 137.410156 115.601562 C 137.523438 115.601562 137.523438 115.601562 137.636719 115.601562 C 138.429688 115.601562 139 114.921875 139 114.128906 C 139 113.332031 138.316406 112.765625 137.523438 112.765625 C 137.183594 112.765625 136.839844 112.539062 136.726562 112.425781 C 136.386719 112.085938 136.046875 111.519531 136.046875 110.953125 C 136.046875 109.59375 137.066406 108.347656 137.636719 107.667969 C 138.203125 107.101562 138.773438 106.648438 139.453125 106.078125 C 140.019531 105.628906 140.703125 105.058594 141.269531 104.492188 C 142.972656 102.90625 143.882812 101.09375 143.882812 99.28125 C 144.109375 98.488281 143.429688 97.804688 142.632812 97.804688 Z M 143.429688 110.273438 C 142.632812 110.273438 141.949219 110.839844 141.949219 111.632812 C 141.949219 112.425781 142.519531 113.105469 143.3125 113.105469 L 144.109375 113.105469 C 144.109375 113.105469 144.109375 113.105469 144.222656 113.105469 C 145.015625 113.105469 145.585938 112.539062 145.585938 111.746094 C 145.585938 110.953125 145.015625 110.273438 144.222656 110.273438 Z M 165.230469 96.105469 C 164.550781 95.765625 163.640625 96.105469 163.414062 96.898438 L 163.074219 97.578125 C 162.734375 98.261719 163.074219 99.167969 163.867188 99.394531 C 164.097656 99.507812 164.210938 99.507812 164.4375 99.507812 C 165.003906 99.507812 165.570312 99.167969 165.800781 98.601562 L 166.140625 97.921875 C 166.253906 97.238281 165.914062 96.445312 165.230469 96.105469 Z M 150.808594 87.945312 C 151.035156 87.152344 150.808594 86.359375 150.015625 86.019531 C 149.332031 85.566406 148.425781 85.792969 147.96875 86.359375 C 147.855469 86.472656 147.742188 86.699219 147.628906 86.925781 C 147.515625 87.152344 147.515625 87.378906 147.515625 87.605469 C 147.515625 88.398438 148.195312 88.964844 148.992188 89.078125 C 149.105469 89.078125 149.105469 89.078125 149.21875 89.078125 C 150.015625 88.964844 150.582031 88.625 150.808594 87.945312 Z M 158.871094 106.191406 C 158.304688 105.738281 157.734375 105.285156 157.28125 104.71875 C 156.714844 104.152344 155.917969 103.132812 156.03125 102 C 156.144531 101.207031 155.578125 100.527344 154.785156 100.414062 C 153.988281 100.300781 153.308594 100.867188 153.195312 101.660156 C 153.078125 103.359375 153.761719 105.058594 155.238281 106.648438 C 155.804688 107.214844 156.488281 107.78125 157.054688 108.347656 C 157.507812 108.800781 158.078125 109.140625 158.417969 109.59375 C 160.007812 111.179688 161.027344 113.332031 161.371094 115.601562 C 161.484375 116.28125 162.050781 116.847656 162.734375 116.847656 L 162.847656 116.847656 C 163.640625 116.734375 164.210938 116.054688 164.097656 115.261719 C 163.753906 112.3125 162.507812 109.59375 160.347656 107.554688 C 159.894531 107.101562 159.324219 106.648438 158.871094 106.191406 Z M 73.703125 126.820312 C 73.929688 126.933594 74.15625 126.933594 74.382812 126.933594 C 74.949219 126.933594 75.40625 126.59375 75.632812 126.140625 C 75.972656 125.460938 75.746094 124.554688 74.949219 124.214844 C 70.292969 121.945312 66.660156 117.527344 65.296875 112.539062 C 65.070312 111.746094 64.277344 111.292969 63.59375 111.519531 C 62.800781 111.746094 62.34375 112.539062 62.574219 113.21875 C 64.164062 119.113281 68.363281 124.101562 73.703125 126.820312 Z M 85.738281 118.886719 C 86.191406 119.226562 86.535156 119.566406 86.875 119.90625 C 87.214844 120.246094 87.667969 120.699219 88.125 121.039062 C 90.394531 122.851562 93.234375 123.871094 96.1875 123.871094 C 96.640625 123.871094 97.207031 123.871094 97.664062 123.761719 C 98.457031 123.648438 99.027344 122.96875 98.910156 122.171875 C 98.796875 121.378906 98.117188 120.8125 97.320312 120.925781 C 94.710938 121.265625 91.984375 120.472656 90.054688 118.773438 C 89.714844 118.433594 89.371094 118.09375 89.03125 117.753906 C 88.578125 117.300781 88.125 116.960938 87.667969 116.507812 C 86.421875 115.488281 85.171875 114.921875 83.921875 114.921875 C 82.105469 114.808594 80.515625 115.828125 79.949219 117.414062 C 79.71875 118.09375 80.0625 119 80.742188 119.226562 C 81.421875 119.453125 82.332031 119.113281 82.558594 118.433594 C 82.671875 118.09375 83.242188 117.753906 83.808594 117.867188 C 84.261719 117.980469 84.945312 118.320312 85.738281 118.886719 Z M 112.199219 113.671875 C 112.539062 114.238281 112.878906 114.691406 113.21875 115.261719 C 114.355469 117.300781 115.035156 119.566406 115.152344 121.832031 C 115.152344 122.628906 115.832031 123.191406 116.515625 123.191406 C 117.308594 123.191406 117.875 122.511719 117.875 121.71875 C 117.761719 119 116.96875 116.28125 115.605469 113.898438 C 115.265625 113.332031 114.808594 112.765625 114.46875 112.085938 C 113.902344 111.292969 113.335938 110.5 112.992188 109.59375 C 112.3125 108.234375 112.3125 106.871094 112.765625 105.96875 C 113.105469 105.285156 112.878906 104.378906 112.199219 104.039062 C 111.515625 103.699219 110.609375 103.925781 110.269531 104.605469 C 109.359375 106.308594 109.472656 108.574219 110.496094 110.726562 C 111.0625 111.859375 111.632812 112.765625 112.199219 113.671875 Z M 131.390625 132.488281 C 132.410156 133.28125 133.660156 133.621094 134.910156 133.621094 C 135.59375 133.621094 136.386719 133.507812 136.953125 133.167969 C 137.636719 132.828125 137.976562 132.03125 137.636719 131.238281 C 137.296875 130.558594 136.5 130.21875 135.703125 130.558594 C 134.910156 130.898438 133.890625 130.785156 132.980469 130.105469 C 131.84375 129.3125 131.050781 127.953125 131.050781 126.480469 C 131.050781 125.007812 131.730469 123.648438 132.867188 122.851562 C 133.546875 122.398438 133.660156 121.492188 133.207031 120.925781 C 132.753906 120.246094 131.84375 120.132812 131.277344 120.585938 C 129.460938 121.945312 128.324219 124.328125 128.324219 126.59375 C 128.210938 128.972656 129.460938 131.128906 131.390625 132.488281 Z M 127.074219 113.785156 C 126.847656 114.46875 127.1875 115.261719 127.871094 115.714844 C 128.210938 115.941406 128.550781 116.054688 128.890625 116.054688 C 129.234375 116.054688 129.6875 115.941406 130.027344 115.714844 C 130.59375 115.261719 130.710938 114.351562 130.253906 113.671875 C 130.140625 113.445312 129.914062 113.332031 129.6875 113.21875 C 129.460938 112.992188 129.347656 112.878906 129.003906 112.878906 C 127.984375 112.652344 127.300781 113.105469 127.074219 113.785156 Z M 127.074219 113.785156 "/>
<path style=" stroke:none;fill-rule:nonzero;fill:rgb(46.27451%,49.803922%,67.843137%);fill-opacity:0.701961;" d="M 129.800781 101.546875 C 130.027344 101.660156 130.367188 101.773438 130.59375 101.773438 C 130.820312 101.773438 131.050781 101.660156 131.277344 101.546875 C 131.730469 101.320312 132.070312 100.867188 132.183594 100.300781 C 132.183594 99.734375 131.84375 99.167969 131.390625 98.941406 C 130.9375 98.601562 130.253906 98.488281 129.800781 98.828125 C 129.347656 99.167969 129.003906 99.621094 129.003906 100.1875 C 129.003906 100.753906 129.347656 101.320312 129.800781 101.546875 Z M 55.191406 118.433594 L 55.078125 119.226562 C 54.964844 120.019531 55.644531 120.699219 56.328125 120.8125 L 56.441406 120.8125 C 57.121094 120.8125 57.804688 120.246094 57.804688 119.566406 L 57.917969 118.773438 C 58.03125 117.980469 57.347656 117.300781 56.667969 117.300781 C 55.984375 117.074219 55.304688 117.640625 55.191406 118.433594 Z M 40.429688 131.238281 C 40.769531 130.671875 40.769531 129.992188 40.316406 129.425781 L 39.746094 128.746094 C 39.179688 128.179688 38.382812 128.066406 37.703125 128.632812 C 37.25 129.085938 37.136719 129.765625 37.363281 130.21875 C 36.339844 130.898438 34.976562 131.128906 33.839844 130.898438 C 31.910156 130.671875 30.207031 129.539062 28.730469 128.519531 C 27.480469 127.613281 26.007812 126.480469 25.210938 125.007812 C 24.53125 123.648438 24.53125 122.171875 25.210938 121.152344 C 25.664062 120.472656 25.550781 119.679688 24.984375 119.113281 C 24.300781 118.660156 23.507812 118.773438 22.941406 119.339844 C 21.578125 121.152344 21.464844 123.871094 22.710938 126.140625 C 23.734375 128.066406 25.550781 129.539062 27.027344 130.558594 C 28.617188 131.691406 30.777344 133.054688 33.273438 133.394531 C 33.726562 133.507812 34.070312 133.507812 34.523438 133.507812 C 37.019531 133.847656 39.179688 132.941406 40.429688 131.238281 Z M 17.488281 134.1875 C 18.964844 132.488281 19.53125 130.105469 18.964844 127.953125 C 18.625 126.707031 18.058594 125.800781 17.375 124.78125 C 16.695312 123.648438 16.125 122.628906 16.125 121.605469 C 16.125 120.585938 16.921875 119.566406 17.828125 119.339844 C 18.625 119.113281 19.078125 118.320312 18.851562 117.640625 C 18.625 116.847656 17.828125 116.394531 17.148438 116.621094 C 14.992188 117.1875 13.289062 119.339844 13.289062 121.605469 C 13.289062 123.421875 14.195312 124.894531 14.992188 126.253906 C 15.558594 127.046875 16.011719 127.839844 16.238281 128.746094 C 16.582031 129.992188 16.238281 131.351562 15.445312 132.371094 C 15.21875 132.601562 14.992188 132.828125 14.761719 132.941406 C 15.332031 133.734375 15.898438 134.527344 16.46875 135.207031 C 16.808594 134.980469 17.148438 134.640625 17.488281 134.1875 Z M 83.128906 132.148438 C 84.148438 129.539062 83.808594 126.367188 82.332031 123.988281 C 81.878906 123.308594 81.082031 123.078125 80.402344 123.53125 C 79.71875 123.988281 79.492188 124.78125 79.949219 125.460938 C 80.96875 127.160156 81.195312 129.3125 80.515625 131.128906 C 79.832031 132.941406 78.242188 134.414062 76.425781 134.980469 C 75.746094 135.207031 75.40625 135.773438 75.40625 136.453125 C 75.519531 137.132812 76.085938 137.699219 76.769531 137.699219 L 77.449219 137.699219 C 77.902344 137.699219 78.359375 137.472656 78.585938 137.019531 C 80.628906 136.226562 82.332031 134.414062 83.128906 132.148438 Z M 124.007812 128.746094 C 123.441406 128.179688 122.644531 128.066406 121.964844 128.632812 C 120.828125 129.652344 119.125 130.21875 117.535156 129.992188 C 115.945312 129.765625 114.46875 128.972656 113.5625 127.613281 C 113.335938 127.273438 113.105469 126.820312 112.878906 126.480469 C 112.425781 125.6875 111.972656 124.894531 111.289062 124.101562 C 110.382812 123.191406 109.132812 122.738281 107.996094 122.738281 C 107.089844 122.738281 106.292969 123.191406 105.613281 123.871094 C 105.042969 124.441406 105.15625 125.347656 105.726562 125.914062 C 106.292969 126.480469 107.203125 126.367188 107.769531 125.800781 C 107.769531 125.800781 107.882812 125.6875 108.109375 125.6875 C 108.449219 125.6875 109.019531 125.914062 109.246094 126.140625 C 109.699219 126.59375 110.039062 127.160156 110.382812 127.839844 C 110.609375 128.292969 110.949219 128.746094 111.289062 129.3125 C 112.652344 131.238281 114.925781 132.601562 117.308594 132.828125 C 117.648438 132.828125 117.878906 132.828125 118.21875 132.828125 C 120.261719 132.828125 122.417969 132.03125 123.894531 130.671875 C 124.464844 130.21875 124.464844 129.3125 124.007812 128.746094 Z M 151.832031 124.554688 C 153.988281 123.53125 155.578125 121.605469 156.371094 119.453125 C 157.054688 117.1875 156.941406 114.691406 155.804688 112.652344 C 155.464844 111.972656 154.554688 111.746094 153.875 112.085938 C 153.195312 112.425781 152.96875 113.332031 153.308594 114.011719 C 153.988281 115.371094 154.214844 117.074219 153.648438 118.546875 C 153.195312 120.019531 152.058594 121.378906 150.582031 122.058594 C 149.21875 122.738281 147.289062 122.738281 146.378906 121.605469 C 145.925781 121.039062 145.015625 120.925781 144.335938 121.378906 C 143.769531 121.832031 143.65625 122.738281 144.109375 123.421875 C 145.246094 124.78125 146.835938 125.347656 148.539062 125.347656 C 149.671875 125.234375 150.808594 125.007812 151.832031 124.554688 Z M 65.296875 126.253906 C 64.503906 126.367188 64.046875 127.160156 64.164062 127.839844 L 66.546875 141.441406 C 66.660156 142.121094 67.226562 142.574219 67.910156 142.574219 C 68.023438 142.574219 68.023438 142.574219 68.136719 142.574219 C 68.933594 142.460938 69.386719 141.667969 69.273438 140.988281 L 66.886719 127.386719 C 66.773438 126.59375 66.09375 126.140625 65.296875 126.253906 Z M 93.347656 140.191406 C 93.460938 140.191406 93.6875 140.308594 93.800781 140.308594 C 94.371094 140.308594 94.9375 139.96875 95.164062 139.398438 L 99.253906 127.5 C 99.480469 126.707031 99.140625 125.914062 98.34375 125.6875 C 97.550781 125.460938 96.753906 125.800781 96.527344 126.59375 L 92.4375 138.492188 C 92.210938 139.171875 92.664062 139.96875 93.347656 140.191406 Z M 157.734375 123.53125 L 148.539062 130.898438 C 147.96875 131.351562 147.855469 132.261719 148.3125 132.941406 C 148.539062 133.28125 148.992188 133.507812 149.445312 133.507812 C 149.785156 133.507812 150.128906 133.394531 150.355469 133.167969 L 159.554688 125.800781 C 160.121094 125.347656 160.234375 124.441406 159.78125 123.761719 C 159.214844 123.191406 158.304688 123.078125 157.734375 123.53125 Z M 115.378906 140.648438 C 114.695312 138.152344 112.878906 136.226562 111.289062 134.753906 L 106.40625 130.105469 C 105.839844 129.539062 104.929688 129.539062 104.363281 130.105469 C 103.796875 130.671875 103.796875 131.578125 104.363281 132.148438 L 109.246094 136.792969 C 110.835938 138.378906 112.085938 139.628906 112.539062 141.328125 C 112.878906 142.6875 112.539062 144.160156 111.632812 145.179688 C 110.949219 145.972656 110.152344 146.425781 109.359375 146.3125 C 108.679688 146.3125 107.996094 145.746094 107.882812 145.179688 C 107.769531 144.386719 107.089844 143.820312 106.292969 143.933594 C 105.496094 144.046875 104.929688 144.726562 105.042969 145.519531 C 105.269531 147.445312 107.089844 149.148438 109.132812 149.261719 C 109.246094 149.261719 109.359375 149.261719 109.359375 149.261719 C 110.949219 149.261719 112.539062 148.46875 113.789062 147.105469 C 115.265625 145.292969 115.832031 142.800781 115.378906 140.648438 Z M 144.222656 136 C 143.539062 135.546875 142.632812 135.773438 142.292969 136.453125 C 140.589844 138.945312 137.636719 140.648438 134.570312 140.648438 C 131.503906 140.648438 128.4375 139.058594 126.847656 136.453125 C 126.394531 135.773438 125.484375 135.660156 124.917969 136 C 124.234375 136.453125 124.121094 137.359375 124.464844 137.925781 C 126.621094 141.328125 130.59375 143.367188 134.570312 143.367188 C 138.65625 143.367188 142.519531 141.214844 144.675781 137.925781 C 145.132812 137.359375 144.902344 136.453125 144.222656 136 Z M 47.355469 129.878906 L 47.355469 130.21875 C 47.355469 131.011719 48.035156 131.691406 48.832031 131.691406 C 49.625 131.691406 50.308594 131.011719 50.308594 130.21875 L 50.308594 129.878906 C 50.308594 129.085938 49.625 128.40625 48.832031 128.40625 C 48.035156 128.40625 47.355469 129.085938 47.355469 129.878906 Z M 120.148438 143.027344 C 119.351562 143.027344 118.671875 143.707031 118.671875 144.5 C 118.671875 145.292969 119.351562 145.972656 120.148438 145.972656 L 120.488281 145.972656 C 121.28125 145.972656 121.964844 145.292969 121.964844 144.5 C 121.964844 143.707031 121.28125 143.027344 120.488281 143.027344 Z M 29.640625 143.933594 C 29.414062 142.800781 28.84375 141.78125 27.9375 140.988281 C 25.890625 139.058594 22.597656 138.71875 20.101562 139.96875 C 20.78125 140.761719 21.351562 141.441406 22.03125 142.234375 C 23.394531 141.894531 24.871094 142.121094 25.890625 143.027344 C 26.347656 143.480469 26.6875 143.933594 26.6875 144.386719 C 26.800781 144.839844 26.6875 145.179688 26.347656 145.40625 C 26.121094 145.632812 26.007812 145.859375 25.890625 146.199219 C 26.460938 146.765625 27.027344 147.332031 27.597656 147.785156 C 27.824219 147.785156 28.050781 147.671875 28.164062 147.445312 C 29.414062 146.652344 29.867188 145.292969 29.640625 143.933594 Z M 45.765625 145.859375 C 46.675781 144.953125 47.355469 144.160156 48.265625 144.046875 C 49.285156 143.933594 50.535156 144.953125 51.558594 145.859375 C 52.125 146.425781 53.035156 146.3125 53.601562 145.746094 C 54.167969 145.179688 54.054688 144.273438 53.488281 143.707031 C 52.464844 142.6875 50.421875 140.871094 48.035156 141.101562 C 46.105469 141.328125 44.96875 142.574219 43.835938 143.707031 C 43.152344 144.386719 42.585938 145.066406 41.90625 145.40625 C 40.996094 145.859375 39.859375 145.746094 39.066406 145.292969 C 38.269531 144.726562 37.816406 143.707031 37.816406 142.800781 C 37.929688 142.007812 37.363281 141.328125 36.566406 141.214844 C 35.773438 141.101562 35.089844 141.667969 34.976562 142.460938 C 34.75 144.5 35.773438 146.425781 37.476562 147.558594 C 38.382812 148.238281 39.519531 148.46875 40.65625 148.46875 C 41.5625 148.46875 42.472656 148.238281 43.265625 147.898438 C 44.175781 147.558594 45.085938 146.652344 45.765625 145.859375 Z M 61.777344 145.519531 C 62.460938 145.519531 63.027344 145.066406 63.140625 144.386719 C 63.253906 143.59375 62.800781 142.914062 62.003906 142.6875 C 60.1875 142.347656 58.710938 140.53125 58.710938 138.71875 C 58.710938 137.925781 58.9375 137.019531 59.164062 136.113281 L 59.28125 135.773438 C 59.621094 134.640625 59.960938 133.28125 59.621094 131.808594 C 59.28125 129.992188 58.144531 128.632812 56.554688 128.179688 C 55.53125 127.953125 54.394531 128.179688 53.488281 128.859375 C 52.691406 129.425781 52.238281 130.332031 52.351562 131.238281 C 52.351562 132.03125 53.035156 132.601562 53.828125 132.601562 C 54.625 132.601562 55.191406 131.921875 55.191406 131.128906 C 55.191406 131.128906 55.191406 131.011719 55.417969 130.898438 C 55.53125 130.785156 55.757812 130.785156 55.871094 130.785156 C 56.328125 130.898438 56.78125 131.46875 56.894531 132.148438 C 57.007812 133.054688 56.78125 134.074219 56.554688 134.867188 L 56.441406 135.207031 C 56.097656 136.226562 55.871094 137.359375 55.871094 138.492188 C 55.871094 141.667969 58.371094 144.613281 61.4375 145.292969 C 61.664062 145.519531 61.664062 145.519531 61.777344 145.519531 Z M 63.140625 149.828125 C 64.84375 152.320312 67.796875 153.792969 70.75 153.792969 C 71.089844 153.792969 71.429688 153.792969 71.882812 153.679688 C 75.175781 153.226562 78.242188 150.847656 79.265625 147.671875 C 79.949219 145.632812 79.605469 143.027344 77.5625 142.007812 C 76.882812 141.667969 75.972656 141.894531 75.632812 142.6875 C 75.292969 143.367188 75.519531 144.273438 76.3125 144.613281 C 76.882812 144.839844 76.882812 145.972656 76.539062 146.878906 C 75.746094 149.03125 73.703125 150.734375 71.429688 150.960938 C 69.160156 151.300781 66.773438 150.167969 65.410156 148.238281 C 64.957031 147.558594 64.046875 147.445312 63.480469 147.898438 C 62.914062 148.238281 62.6875 149.148438 63.140625 149.828125 Z M 63.140625 149.828125 "/>
<path style=" stroke:none;fill-rule:nonzero;fill:rgb(46.27451%,49.803922%,67.843137%);fill-opacity:0.701961;" d="M 97.550781 146.992188 C 96.527344 146.539062 95.390625 146.199219 94.371094 145.859375 C 93.007812 145.40625 91.757812 144.953125 90.621094 144.386719 C 89.144531 143.59375 87.78125 142.234375 87.441406 140.648438 C 87.667969 140.988281 88.011719 141.101562 88.464844 141.214844 C 89.371094 141.328125 90.167969 140.761719 90.734375 139.96875 C 91.304688 139.058594 91.304688 138.039062 90.734375 137.132812 C 89.941406 135.773438 88.011719 135.433594 86.535156 136.339844 C 85.511719 137.019531 84.832031 138.152344 84.601562 139.511719 C 84.261719 142.914062 86.875 145.632812 89.257812 146.878906 C 90.621094 147.671875 92.097656 148.128906 93.574219 148.578125 C 94.597656 148.921875 95.617188 149.261719 96.527344 149.601562 C 98.796875 150.621094 100.386719 152.207031 100.613281 153.792969 C 100.730469 154.472656 100.386719 155.265625 99.933594 155.71875 C 99.707031 155.945312 99.367188 156.058594 99.140625 156.058594 C 98.34375 155.945312 97.664062 156.511719 97.550781 157.308594 C 97.4375 158.101562 98.003906 158.78125 98.796875 158.894531 C 98.910156 158.894531 99.027344 158.894531 99.140625 158.894531 C 100.160156 158.894531 101.070312 158.441406 101.863281 157.648438 C 102.886719 156.511719 103.453125 154.925781 103.226562 153.339844 C 102.886719 150.847656 100.84375 148.46875 97.550781 146.992188 Z M 131.617188 146.539062 C 131.503906 145.746094 130.710938 145.292969 129.914062 145.40625 C 129.117188 145.519531 128.664062 146.3125 128.777344 147.105469 C 129.003906 148.128906 128.210938 149.148438 127.414062 149.828125 C 124.464844 152.320312 119.691406 152.433594 116.742188 149.941406 C 116.171875 149.488281 115.265625 149.488281 114.695312 150.167969 C 114.242188 150.734375 114.242188 151.640625 114.925781 152.207031 C 116.96875 153.792969 119.464844 154.699219 121.964844 154.699219 C 124.578125 154.699219 127.1875 153.792969 129.234375 152.09375 C 131.164062 150.507812 131.957031 148.46875 131.617188 146.539062 Z M 144.449219 145.972656 C 145.472656 144.953125 146.492188 143.933594 147.402344 142.914062 C 146.949219 143.140625 146.492188 143.367188 146.039062 143.707031 C 145.359375 144.273438 144.789062 145.066406 144.449219 145.972656 Z M 140.019531 146.992188 C 139.339844 146.765625 138.429688 147.105469 138.203125 147.785156 L 136.273438 153 C 137.75 151.867188 139.226562 150.734375 140.589844 149.488281 L 140.816406 148.808594 C 141.15625 148.011719 140.703125 147.21875 140.019531 146.992188 Z M 55.191406 148.351562 L 45.539062 157.421875 C 44.96875 157.988281 44.96875 158.894531 45.425781 159.460938 C 45.652344 159.800781 46.105469 159.914062 46.445312 159.914062 C 46.789062 159.914062 47.128906 159.800781 47.46875 159.574219 L 57.121094 150.507812 C 57.6875 149.941406 57.6875 149.03125 57.234375 148.46875 C 56.667969 147.785156 55.757812 147.785156 55.191406 148.351562 Z M 88.691406 153.113281 C 88.238281 152.320312 87.554688 151.753906 86.761719 151.640625 C 85.964844 151.527344 85.285156 151.980469 85.058594 152.773438 C 84.945312 153.566406 85.398438 154.246094 86.191406 154.472656 C 86.304688 154.472656 86.421875 154.8125 86.304688 155.039062 C 86.191406 155.492188 85.625 155.832031 84.945312 155.945312 C 84.261719 156.058594 83.582031 156.058594 82.785156 156.171875 L 82.105469 156.171875 C 80.96875 156.171875 79.605469 156.285156 78.472656 157.078125 C 76.882812 158.101562 75.859375 160.027344 76.085938 161.839844 C 76.3125 163.765625 77.675781 165.351562 79.492188 165.921875 C 79.605469 165.921875 79.71875 166.03125 79.945312 166.03125 C 80.515625 166.03125 81.082031 165.691406 81.308594 165.011719 C 81.535156 164.21875 81.082031 163.425781 80.402344 163.199219 C 79.71875 162.972656 79.039062 162.292969 78.925781 161.5 C 78.8125 160.707031 79.265625 159.914062 79.945312 159.460938 C 80.628906 159.121094 81.421875 159.007812 82.21875 159.007812 L 82.785156 159.007812 C 83.695312 159.007812 84.601562 159.007812 85.625 158.78125 C 87.214844 158.328125 88.464844 157.308594 88.917969 156.058594 C 89.257812 155.039062 89.144531 154.019531 88.691406 153.113281 Z M 118.21875 161.726562 C 116.058594 158.667969 111.402344 157.761719 108.335938 159.914062 C 105.953125 161.613281 104.929688 164.671875 105.496094 167.394531 C 106.40625 167.167969 107.316406 166.941406 108.222656 166.714844 C 107.882812 165.128906 108.566406 163.199219 109.925781 162.292969 C 111.742188 161.046875 114.582031 161.613281 115.832031 163.3125 C 116.058594 163.652344 116.285156 163.765625 116.628906 163.878906 C 117.195312 163.652344 117.648438 163.539062 118.21875 163.3125 C 118.558594 162.859375 118.558594 162.292969 118.21875 161.726562 Z M 90.054688 157.421875 C 89.714844 157.308594 89.371094 157.308594 89.03125 157.421875 C 88.464844 157.648438 88.125 158.328125 88.125 158.894531 C 88.125 159.574219 88.578125 160.140625 89.257812 160.253906 C 89.371094 160.253906 89.488281 160.253906 89.714844 160.253906 C 90.167969 160.253906 90.621094 160.027344 90.960938 159.574219 C 91.304688 159.007812 91.304688 158.328125 90.960938 157.871094 C 90.734375 157.761719 90.394531 157.53125 90.054688 157.421875 Z M 78.242188 154.359375 L 78.472656 154.359375 C 79.265625 154.359375 79.949219 153.679688 79.949219 152.886719 C 79.949219 152.09375 79.265625 151.414062 78.472656 151.414062 L 78.242188 151.414062 C 77.449219 151.414062 76.769531 152.09375 76.769531 152.886719 C 76.882812 153.679688 77.449219 154.359375 78.242188 154.359375 Z M 40.429688 151.527344 C 39.632812 151.527344 38.953125 152.207031 38.953125 153 L 38.953125 153.226562 C 38.953125 154.019531 39.632812 154.699219 40.429688 154.699219 C 41.222656 154.699219 41.90625 154.019531 41.90625 153.226562 L 41.90625 153 C 41.789062 152.09375 41.222656 151.527344 40.429688 151.527344 Z M 29.300781 136.792969 C 28.503906 136.792969 27.824219 137.472656 27.824219 138.265625 L 27.824219 138.492188 C 27.824219 139.285156 28.503906 139.96875 29.300781 139.96875 C 30.09375 139.96875 30.777344 139.285156 30.777344 138.492188 L 30.777344 138.265625 C 30.660156 137.359375 29.980469 136.792969 29.300781 136.792969 Z M 123.667969 158.894531 L 122.871094 159.234375 C 122.191406 159.574219 121.851562 160.480469 122.191406 161.160156 C 122.191406 161.273438 122.304688 161.386719 122.417969 161.5 C 123.441406 160.933594 124.578125 160.480469 125.597656 159.914062 C 125.597656 159.800781 125.597656 159.6875 125.484375 159.574219 C 125.144531 158.78125 124.347656 158.441406 123.667969 158.894531 Z M 55.644531 161.839844 C 55.53125 161.046875 54.851562 160.480469 54.054688 160.59375 C 52.578125 160.707031 51.214844 161.5 50.195312 162.519531 C 51.214844 162.972656 52.125 163.425781 53.148438 163.765625 C 53.488281 163.539062 53.941406 163.425781 54.394531 163.425781 C 55.191406 163.3125 55.757812 162.632812 55.644531 161.839844 Z M 63.59375 156.738281 C 61.550781 158.214844 60.753906 161.273438 61.890625 163.539062 C 62.230469 164.21875 63.027344 164.558594 63.820312 164.21875 C 64.503906 163.878906 64.84375 163.085938 64.503906 162.292969 C 63.933594 161.160156 64.390625 159.6875 65.296875 159.007812 C 66.207031 158.328125 67.796875 158.328125 68.703125 159.234375 C 69.613281 160.027344 69.839844 161.613281 69.160156 162.632812 C 68.703125 163.3125 68.933594 164.21875 69.613281 164.558594 C 69.839844 164.671875 70.066406 164.785156 70.40625 164.785156 C 70.863281 164.785156 71.316406 164.558594 71.65625 164.105469 C 73.019531 161.953125 72.566406 158.894531 70.75 157.191406 C 68.703125 155.492188 65.640625 155.265625 63.59375 156.738281 Z M 89.828125 167.28125 C 90.167969 167.167969 90.621094 167.28125 91.078125 167.28125 C 91.53125 167.394531 92.097656 167.394531 92.667969 167.394531 C 93.800781 167.28125 94.9375 166.601562 95.390625 165.691406 C 95.84375 165.011719 95.84375 164.105469 95.503906 163.425781 C 95.164062 162.746094 94.371094 162.40625 93.574219 162.746094 C 92.894531 163.085938 92.667969 163.765625 92.78125 164.445312 C 92.667969 164.558594 92.4375 164.671875 92.324219 164.671875 C 91.984375 164.671875 91.644531 164.671875 91.191406 164.558594 C 90.507812 164.445312 89.828125 164.445312 89.03125 164.558594 C 86.988281 165.011719 85.964844 166.714844 85.058594 167.960938 C 84.832031 168.300781 84.601562 168.640625 84.375 168.980469 C 84.148438 169.320312 83.808594 169.660156 83.46875 170 C 83.921875 170 84.375 170 84.945312 170 C 85.738281 170 86.421875 170 87.214844 169.886719 C 87.328125 169.773438 87.441406 169.660156 87.441406 169.433594 C 88.351562 168.527344 89.03125 167.507812 89.828125 167.28125 Z M 118.671875 115.488281 L 118.445312 115.714844 C 117.875 116.28125 117.875 117.1875 118.445312 117.753906 C 118.671875 117.980469 119.125 118.207031 119.464844 118.207031 C 119.808594 118.207031 120.148438 118.09375 120.488281 117.753906 L 120.714844 117.527344 C 121.28125 116.960938 121.28125 116.054688 120.714844 115.488281 C 120.148438 114.921875 119.238281 114.921875 118.671875 115.488281 Z M 100.613281 115.488281 C 100.046875 116.054688 100.046875 116.960938 100.613281 117.527344 L 100.84375 117.753906 C 101.070312 117.980469 101.523438 118.207031 101.863281 118.207031 C 102.203125 118.207031 102.546875 118.09375 102.886719 117.753906 C 103.453125 117.1875 103.453125 116.28125 102.886719 115.714844 L 102.660156 115.488281 C 102.09375 114.921875 101.183594 114.921875 100.613281 115.488281 Z M 39.632812 119.226562 L 39.292969 119.453125 C 38.609375 119.792969 38.269531 120.699219 38.609375 121.378906 C 38.839844 121.832031 39.40625 122.171875 39.859375 122.171875 C 40.085938 122.171875 40.316406 122.171875 40.542969 122.058594 L 40.882812 121.832031 C 41.5625 121.492188 41.90625 120.585938 41.5625 119.90625 C 41.109375 119.113281 40.316406 118.773438 39.632812 119.226562 Z M 39.632812 119.226562 "/>
</g>
</svg>
