<?xml version="1.0" encoding="UTF-8"?>
<svg xmlns="http://www.w3.org/2000/svg" xmlns:xlink="http://www.w3.org/1999/xlink" width="100px" height="100px" viewBox="0 0 100 100" version="1.1">
<g id="surface1">
<path style=" stroke:none;fill-rule:nonzero;fill:rgb(0%,0%,0%);fill-opacity:1;" d="M 95.921875 50 C 98.574219 46.691406 99.714844 42.359375 98.941406 38.097656 C 98.132812 33.636719 95.398438 29.898438 91.542969 27.78125 C 92.804688 23.382812 91.976562 18.558594 89.164062 14.808594 C 86.382812 11.101562 81.953125 8.886719 77.316406 8.886719 C 76.65625 8.886719 76.003906 8.929688 75.355469 9.019531 C 73.078125 3.652344 67.753906 0 61.734375 0 C 56.960938 0 52.707031 2.273438 50 5.792969 C 47.292969 2.273438 43.039062 0 38.265625 0 C 32.242188 0 26.917969 3.652344 24.640625 9.023438 C 23.992188 8.9375 23.335938 8.894531 22.675781 8.894531 C 17.964844 8.894531 13.648438 11.050781 10.832031 14.8125 C 8.019531 18.5625 7.195312 23.386719 8.457031 27.785156 C 4.597656 29.902344 1.863281 33.640625 1.054688 38.105469 C 0.285156 42.363281 1.425781 46.695312 4.074219 50 C 1.425781 53.308594 0.285156 57.640625 1.054688 61.902344 C 1.863281 66.363281 4.601562 70.101562 8.457031 72.21875 C 7.195312 76.617188 8.023438 81.441406 10.835938 85.191406 C 13.617188 88.898438 18.046875 91.113281 22.683594 91.113281 C 23.34375 91.113281 23.996094 91.070312 24.644531 90.980469 C 26.921875 96.347656 32.242188 100 38.265625 100 C 43.039062 100 47.292969 97.726562 50 94.207031 C 52.707031 97.726562 56.960938 100 61.734375 100 C 67.757812 100 73.082031 96.347656 75.359375 90.976562 C 76.007812 91.0625 76.664062 91.105469 77.324219 91.105469 C 82.03125 91.105469 86.351562 88.949219 89.167969 85.1875 C 91.976562 81.4375 92.804688 76.613281 91.542969 72.214844 C 95.402344 70.097656 98.136719 66.359375 98.945312 61.894531 C 99.714844 57.636719 98.574219 53.304688 95.921875 50 Z M 46.9375 85.203125 C 46.9375 89.988281 43.046875 93.878906 38.265625 93.878906 C 34.121094 93.878906 30.542969 90.929688 29.753906 86.867188 L 29.714844 86.652344 C 29.632812 86.175781 29.589844 85.691406 29.589844 85.203125 C 29.589844 83.792969 29.929688 82.429688 30.5625 81.214844 C 32.863281 82.628906 35.515625 83.386719 38.285156 83.386719 L 38.285156 77.261719 C 35.96875 77.261719 33.789062 76.359375 32.152344 74.722656 C 30.511719 73.085938 29.609375 70.90625 29.609375 68.589844 L 23.488281 68.589844 C 23.488281 71.589844 24.378906 74.457031 26.027344 76.882812 C 24.414062 79.25 23.523438 82.03125 23.476562 84.953125 C 23.210938 84.976562 22.949219 84.992188 22.683594 84.992188 C 19.921875 84.992188 17.390625 83.726562 15.734375 81.515625 C 13.695312 78.800781 13.4375 75.121094 15.070312 72.140625 L 15.796875 70.8125 L 14.558594 67.992188 L 13.183594 67.589844 C 10.007812 66.660156 7.671875 64.0625 7.082031 60.8125 C 6.566406 57.964844 7.511719 55.066406 9.554688 53.0625 L 23.789062 53.0625 C 24.371094 55.84375 25.742188 58.402344 27.800781 60.460938 C 30.484375 63.136719 34.183594 64.796875 38.265625 64.796875 L 46.9375 64.796875 Z M 46.9375 58.671875 L 38.265625 58.671875 C 33.648438 58.671875 29.859375 55.042969 29.605469 50.488281 C 29.605469 50.472656 29.605469 50.457031 29.601562 50.441406 C 29.59375 50.296875 29.589844 50.148438 29.589844 50 C 29.589844 47.683594 30.492188 45.503906 32.132812 43.867188 L 27.804688 39.539062 C 25.746094 41.597656 24.371094 44.15625 23.789062 46.9375 L 9.554688 46.9375 C 7.507812 44.933594 6.566406 42.039062 7.078125 39.195312 C 7.667969 35.941406 10.007812 33.34375 13.183594 32.414062 L 14.558594 32.011719 L 15.792969 29.191406 L 15.066406 27.863281 C 13.433594 24.886719 13.695312 21.203125 15.730469 18.484375 C 17.382812 16.28125 19.914062 15.015625 22.675781 15.015625 C 22.941406 15.015625 23.210938 15.03125 23.476562 15.054688 C 23.523438 17.972656 24.414062 20.753906 26.027344 23.117188 C 24.378906 25.546875 23.488281 28.410156 23.488281 31.410156 L 29.609375 31.410156 C 29.609375 29.09375 30.511719 26.917969 32.152344 25.277344 C 33.789062 23.640625 35.964844 22.738281 38.285156 22.738281 C 38.285156 22.738281 38.285156 16.613281 38.285156 16.613281 C 35.515625 16.613281 32.863281 17.375 30.5625 18.785156 C 29.929688 17.570312 29.589844 16.207031 29.589844 14.796875 C 29.589844 14.3125 29.632812 13.828125 29.710938 13.355469 L 29.753906 13.132812 C 30.542969 9.070312 34.121094 6.121094 38.265625 6.121094 C 43.046875 6.121094 46.9375 10.011719 46.9375 14.796875 Z M 53.0625 14.796875 C 53.0625 10.011719 56.953125 6.121094 61.734375 6.121094 C 65.878906 6.121094 69.457031 9.070312 70.246094 13.132812 L 70.285156 13.347656 C 70.367188 13.824219 70.40625 14.308594 70.40625 14.796875 C 70.40625 16.207031 70.070312 17.570312 69.4375 18.785156 C 67.136719 17.375 64.484375 16.613281 61.714844 16.613281 L 61.714844 22.738281 C 64.03125 22.738281 66.210938 23.640625 67.847656 25.277344 C 69.488281 26.914062 70.390625 29.09375 70.390625 31.410156 L 76.511719 31.410156 C 76.511719 28.40625 75.621094 25.542969 73.972656 23.117188 C 75.585938 20.75 76.476562 17.96875 76.523438 15.046875 C 76.785156 15.023438 77.050781 15.007812 77.316406 15.007812 C 80.078125 15.007812 82.609375 16.277344 84.265625 18.484375 C 86.304688 21.199219 86.5625 24.882812 84.929688 27.859375 L 84.203125 29.191406 L 84.816406 30.574219 L 85.441406 32.007812 L 86.816406 32.410156 C 89.992188 33.339844 92.328125 35.9375 92.917969 39.1875 C 93.433594 42.035156 92.492188 44.933594 90.441406 46.9375 L 76.210938 46.9375 C 75.628906 44.15625 74.253906 41.597656 72.199219 39.539062 C 69.511719 36.863281 65.8125 35.203125 61.734375 35.203125 L 53.0625 35.203125 Z M 92.921875 60.804688 C 92.332031 64.058594 89.992188 66.65625 86.816406 67.585938 L 85.445312 67.988281 L 84.207031 70.8125 L 84.929688 72.136719 C 86.566406 75.113281 86.304688 78.796875 84.269531 81.515625 C 82.617188 83.71875 80.085938 84.984375 77.324219 84.984375 C 77.054688 84.984375 76.789062 84.96875 76.523438 84.945312 C 76.472656 82.027344 75.585938 79.246094 73.972656 76.882812 C 75.621094 74.457031 76.511719 71.59375 76.511719 68.589844 L 70.390625 68.589844 C 70.390625 70.90625 69.488281 73.085938 67.847656 74.722656 C 66.210938 76.359375 64.03125 77.261719 61.714844 77.261719 C 61.714844 77.261719 61.714844 83.386719 61.714844 83.386719 C 64.484375 83.386719 67.136719 82.625 69.4375 81.214844 C 70.070312 82.429688 70.410156 83.792969 70.410156 85.203125 C 70.410156 85.691406 70.367188 86.175781 70.285156 86.652344 L 70.246094 86.867188 C 69.457031 90.929688 65.878906 93.878906 61.734375 93.878906 C 56.953125 93.878906 53.0625 89.988281 53.0625 85.203125 L 53.0625 41.328125 L 61.734375 41.328125 C 66.351562 41.328125 70.140625 44.957031 70.394531 49.511719 C 70.394531 49.527344 70.394531 49.542969 70.398438 49.558594 C 70.402344 49.703125 70.40625 49.851562 70.40625 50 C 70.40625 52.316406 69.503906 54.496094 67.867188 56.132812 L 72.195312 60.460938 C 74.253906 58.402344 75.628906 55.84375 76.210938 53.0625 L 90.445312 53.0625 C 92.492188 55.066406 93.433594 57.960938 92.921875 60.804688 Z M 92.921875 60.804688 "/>
</g>
</svg>
