<?xml version="1.0" encoding="UTF-8"?>
<svg xmlns="http://www.w3.org/2000/svg" xmlns:xlink="http://www.w3.org/1999/xlink" width="60px" height="60px" viewBox="0 0 60 60" version="1.1">
<g id="surface1">
<path style="fill:none;stroke-width:6.75;stroke-linecap:butt;stroke-linejoin:miter;stroke:rgb(71.372549%,71.372549%,71.372549%);stroke-opacity:1;stroke-miterlimit:10;" d="M 134.921875 48.463542 L 120.924479 62.213542 C 109.283854 73.606771 90.677083 73.606771 79.049479 62.213542 L 65.325521 48.723958 C 60.625 43.984375 53.046875 43.697917 47.994792 48.059896 C 45.494792 50.286458 44.036458 53.4375 43.958333 56.770833 C 43.880208 60.104167 45.182292 63.333333 47.565104 65.651042 L 61.380208 79.166667 C 66.966146 84.661458 70.130208 92.161458 70.130208 100 C 70.130208 107.825521 66.966146 115.338542 61.380208 120.807292 L 47.630208 134.348958 C 45.3125 136.614583 43.997396 139.700521 43.997396 142.942708 C 43.997396 146.171875 45.3125 149.270833 47.630208 151.536458 C 52.473958 156.276042 60.234375 156.276042 65.078125 151.536458 L 79.075521 137.786458 C 90.716146 126.393229 109.322917 126.393229 120.950521 137.786458 L 134.6875 151.276042 C 139.388021 155.989583 146.927083 156.263021 151.966146 151.940104 C 154.466146 149.713542 155.9375 146.5625 156.015625 143.229167 C 156.09375 139.895833 154.778646 136.666667 152.408854 134.348958 L 138.658854 120.807292 C 133.046875 115.338542 129.895833 107.825521 129.895833 100 C 129.895833 92.161458 133.046875 84.661458 138.658854 79.166667 L 152.408854 65.638021 C 154.713542 63.372396 156.015625 60.286458 156.015625 57.044271 C 156.015625 53.815104 154.713542 50.716146 152.408854 48.450521 C 147.552083 43.697917 139.765625 43.697917 134.921875 48.463542 Z M 134.921875 48.463542 " transform="matrix(0.3,0,0,0.3,0,0)"/>
<path style="fill:none;stroke-width:8;stroke-linecap:butt;stroke-linejoin:miter;stroke:rgb(71.372549%,71.372549%,71.372549%);stroke-opacity:1;stroke-miterlimit:10;" d="M 58.307292 76.184896 C 45.026042 81.041667 30.143229 75.963542 22.604167 63.984375 C 15.078125 52.005208 16.940104 36.393229 27.083333 26.510417 C 37.213542 16.640625 52.890625 15.208333 64.661458 23.059896 C 76.419271 30.924479 81.106771 45.9375 75.872396 59.088542 " transform="matrix(0.3,0,0,0.3,0,0)"/>
<path style="fill:none;stroke-width:8;stroke-linecap:butt;stroke-linejoin:miter;stroke:rgb(85.882353%,85.882353%,85.882353%);stroke-opacity:1;stroke-miterlimit:10;" d="M 116.002604 100 C 116.002604 108.841146 108.841146 116.002604 100 116.002604 C 91.158854 116.002604 83.997396 108.841146 83.997396 100 C 83.997396 91.158854 91.158854 83.997396 100 83.997396 C 108.841146 83.997396 116.002604 91.158854 116.002604 100 Z M 116.002604 100 " transform="matrix(0.3,0,0,0.3,0,0)"/>
<path style="fill:none;stroke-width:8;stroke-linecap:butt;stroke-linejoin:miter;stroke:rgb(71.372549%,71.372549%,71.372549%);stroke-opacity:1;stroke-miterlimit:10;" d="M 124.127604 59.088542 C 118.893229 45.950521 123.567708 30.924479 135.325521 23.059896 C 147.096354 15.208333 162.760417 16.640625 172.903646 26.497396 C 183.059896 36.380208 184.921875 52.005208 177.395833 63.971354 C 169.856771 75.950521 154.973958 81.041667 141.692708 76.184896 M 76.158854 140.625 C 81.067708 153.90625 76.015625 168.802083 64.0625 176.380208 C 52.096354 183.932292 36.484375 182.109375 26.575521 172.005208 C 16.666667 161.888021 15.182292 146.236979 23.020833 134.440104 C 30.833333 122.643229 45.833333 117.916667 58.997396 123.098958 M 140.950521 123.098958 C 154.114583 117.890625 169.127604 122.591146 176.966146 134.375 C 184.817708 146.158854 183.346354 161.809896 173.463542 171.953125 C 163.580729 182.083333 147.955729 183.919271 135.989583 176.354167 C 124.010417 168.815104 118.958333 153.90625 123.841146 140.625 " transform="matrix(0.3,0,0,0.3,0,0)"/>
</g>
</svg>
