<?xml version="1.0" encoding="UTF-8"?>
<svg xmlns="http://www.w3.org/2000/svg" xmlns:xlink="http://www.w3.org/1999/xlink" width="60px" height="60px" viewBox="0 0 60 60" version="1.1">
<g id="surface1">
<path style=" stroke:none;fill-rule:nonzero;fill:rgb(64.705882%,64.705882%,64.705882%);fill-opacity:1;" d="M 58.773438 51.765625 L 56.433594 51.765625 L 56.433594 48.074219 C 56.433594 47.394531 55.882812 46.847656 55.203125 46.847656 L 50.289062 46.847656 C 49.609375 46.847656 49.058594 47.394531 49.058594 48.074219 L 49.058594 51.765625 L 46.507812 51.765625 C 45.910156 47.597656 42.320312 44.386719 37.992188 44.386719 L 36.023438 44.386719 C 36.023438 44.386719 36.015625 36.238281 36 36.160156 C 36.144531 34.335938 35.527344 32.460938 34.132812 31.070312 L 27.636719 24.570312 L 35.328125 16.875 C 35.710938 16.496094 36.019531 16.070312 36.257812 15.617188 L 43.894531 15.617188 C 44.574219 15.617188 45.121094 15.066406 45.121094 14.386719 L 45.121094 13.15625 L 47.992188 13.15625 L 47.992188 14.390625 C 47.992188 14.828125 48.226562 15.234375 48.605469 15.453125 L 52.871094 17.914062 C 53.058594 18.023438 53.273438 18.078125 53.484375 18.078125 C 53.695312 18.078125 53.90625 18.023438 54.097656 17.914062 L 58.359375 15.453125 C 58.949219 15.113281 59.152344 14.363281 58.808594 13.777344 C 58.472656 13.1875 57.71875 12.984375 57.132812 13.328125 L 53.484375 15.429688 L 50.453125 13.679688 L 50.453125 10.175781 L 53.484375 8.429688 L 57.132812 10.53125 C 57.722656 10.871094 58.472656 10.667969 58.808594 10.082031 C 59.152344 9.492188 58.949219 8.742188 58.359375 8.40625 L 54.097656 5.945312 C 53.71875 5.722656 53.25 5.722656 52.871094 5.945312 L 48.605469 8.40625 C 48.226562 8.621094 47.992188 9.027344 47.992188 9.46875 L 47.992188 10.695312 L 45.121094 10.695312 L 45.121094 9.46875 C 45.121094 8.789062 44.574219 8.242188 43.894531 8.242188 L 33.328125 8.242188 C 31.5 7.617188 29.394531 8.035156 27.941406 9.488281 L 18.992188 18.429688 C 15.683594 19.015625 13.164062 21.914062 13.164062 25.390625 C 13.164062 27.71875 14.292969 29.785156 16.03125 31.074219 C 16.246094 31.386719 16.496094 31.691406 16.777344 31.972656 L 23.511719 38.703125 L 23.511719 44.386719 L 22.007812 44.386719 C 17.679688 44.386719 14.089844 47.597656 13.492188 51.765625 L 10.941406 51.765625 L 10.941406 48.074219 C 10.941406 47.394531 10.390625 46.847656 9.710938 46.847656 L 4.796875 46.847656 C 4.117188 46.847656 3.566406 47.394531 3.566406 48.074219 L 3.566406 51.765625 L 1.226562 51.765625 C 0.546875 51.765625 0 52.3125 0 52.992188 C 0 53.671875 0.546875 54.226562 1.226562 54.226562 L 58.773438 54.226562 C 59.453125 54.226562 60 53.671875 60 52.992188 C 60 52.3125 59.453125 51.765625 58.773438 51.765625 Z M 42.664062 10.695312 L 42.664062 13.15625 L 36.859375 13.15625 C 36.851562 12.308594 36.648438 11.464844 36.234375 10.695312 Z M 8.484375 51.765625 L 6.023438 51.765625 L 6.023438 49.304688 L 8.484375 49.304688 Z M 29.679688 11.226562 C 30.203125 10.703125 30.894531 10.414062 31.636719 10.414062 C 32.371094 10.414062 33.070312 10.703125 33.589844 11.226562 C 34.667969 12.304688 34.667969 14.058594 33.589844 15.136719 L 26.535156 22.195312 C 25.667969 20.492188 24.136719 19.1875 22.28125 18.625 Z M 15.617188 25.390625 C 15.617188 22.847656 17.691406 20.78125 20.230469 20.78125 C 22.773438 20.78125 24.839844 22.847656 24.839844 25.390625 C 24.839844 27.933594 22.773438 30 20.230469 30 C 17.691406 30 15.617188 27.933594 15.617188 25.390625 Z M 20.722656 32.441406 C 23.699219 32.234375 26.175781 30.179688 27.003906 27.417969 L 32.394531 32.808594 C 33.953125 34.367188 33.953125 36.898438 32.394531 38.460938 C 31.640625 39.214844 30.636719 39.632812 29.570312 39.632812 C 28.503906 39.632812 27.496094 39.214844 26.742188 38.460938 Z M 33.566406 40.703125 L 33.566406 44.386719 L 25.96875 44.386719 L 25.96875 40.992188 C 27.054688 41.722656 28.3125 42.089844 29.570312 42.089844 C 30.984375 42.089844 32.398438 41.625 33.566406 40.703125 Z M 15.984375 51.765625 C 16.554688 48.960938 19.039062 46.847656 22.007812 46.847656 L 37.992188 46.847656 C 40.960938 46.847656 43.445312 48.960938 44.015625 51.765625 Z M 53.976562 51.765625 L 51.515625 51.765625 L 51.515625 49.304688 L 53.976562 49.304688 Z M 53.976562 51.765625 "/>
<path style=" stroke:none;fill-rule:nonzero;fill:rgb(64.705882%,64.705882%,64.705882%);fill-opacity:1;" d="M 20.230469 24.160156 C 19.550781 24.160156 19.003906 24.710938 19.003906 25.390625 C 19.003906 26.066406 19.550781 26.621094 20.230469 26.621094 C 20.90625 26.621094 21.460938 26.066406 21.460938 25.390625 C 21.460938 24.710938 20.90625 24.160156 20.230469 24.160156 Z M 20.230469 24.160156 "/>
</g>
</svg>
